<?xml version="1.0" encoding="utf-8"?>
<!-- Generator: Adobe Illustrator 24.2.1, SVG Export Plug-In . SVG Version: 6.00 Build 0)  -->
<svg version="1.1" id="Logo" xmlns="http://www.w3.org/2000/svg" xmlns:xlink="http://www.w3.org/1999/xlink" x="0px" y="0px"
	 viewBox="0 0 20 20" style="enable-background:new 0 0 20 20;" xml:space="preserve">
<style type="text/css">
	.st0{fill:#FAFAFA;}
</style>
<g>
	<path class="st0" d="M10,3.85c2,0,2.24,0.01,3.03,0.04c0.73,0.03,1.13,0.16,1.39,0.26c0.35,0.14,0.6,0.3,0.86,0.56
		c0.26,0.26,0.42,0.51,0.56,0.86c0.1,0.26,0.22,0.66,0.26,1.39C16.14,7.76,16.15,8,16.15,10s-0.01,2.24-0.04,3.03
		c-0.03,0.73-0.16,1.13-0.26,1.39c-0.14,0.35-0.3,0.6-0.56,0.86c-0.26,0.26-0.51,0.42-0.86,0.56c-0.26,0.1-0.66,0.22-1.39,0.26
		C12.24,16.14,12,16.15,10,16.15s-2.24-0.01-3.03-0.04c-0.73-0.03-1.13-0.16-1.39-0.26c-0.35-0.14-0.6-0.3-0.86-0.56
		c-0.26-0.26-0.42-0.51-0.56-0.86c-0.1-0.26-0.22-0.66-0.26-1.39C3.86,12.24,3.85,12,3.85,10S3.86,7.76,3.9,6.97
		c0.03-0.73,0.16-1.13,0.26-1.39c0.14-0.35,0.3-0.6,0.56-0.86c0.26-0.26,0.51-0.42,0.86-0.56c0.26-0.1,0.66-0.22,1.39-0.26
		C7.76,3.86,8,3.85,10,3.85 M10,2.5c-2.04,0-2.29,0.01-3.09,0.05c-0.8,0.04-1.34,0.16-1.82,0.35C4.59,3.09,4.18,3.34,3.76,3.76
		C3.34,4.18,3.09,4.59,2.89,5.09C2.71,5.56,2.58,6.11,2.55,6.91C2.51,7.71,2.5,7.96,2.5,10c0,2.04,0.01,2.29,0.05,3.09
		c0.04,0.8,0.16,1.34,0.35,1.82c0.19,0.49,0.45,0.91,0.87,1.33c0.42,0.42,0.84,0.67,1.33,0.87c0.48,0.19,1.02,0.31,1.82,0.35
		c0.8,0.04,1.06,0.05,3.09,0.05s2.29-0.01,3.09-0.05c0.8-0.04,1.34-0.16,1.82-0.35c0.49-0.19,0.91-0.45,1.33-0.87
		c0.42-0.42,0.67-0.84,0.87-1.33c0.19-0.48,0.31-1.02,0.35-1.82c0.04-0.8,0.05-1.06,0.05-3.09s-0.01-2.29-0.05-3.09
		c-0.04-0.8-0.16-1.34-0.35-1.82c-0.19-0.49-0.45-0.91-0.87-1.33c-0.42-0.42-0.84-0.67-1.33-0.87c-0.48-0.19-1.02-0.31-1.82-0.35
		C12.29,2.51,12.04,2.5,10,2.5L10,2.5z"/>
	<path class="st0" d="M10,6.15c-2.13,0-3.85,1.72-3.85,3.85s1.72,3.85,3.85,3.85s3.85-1.72,3.85-3.85S12.13,6.15,10,6.15z M10,12.5
		c-1.38,0-2.5-1.12-2.5-2.5c0-1.38,1.12-2.5,2.5-2.5c1.38,0,2.5,1.12,2.5,2.5C12.5,11.38,11.38,12.5,10,12.5z"/>
	<circle class="st0" cx="14" cy="6" r="0.9"/>
</g>
</svg>
