<?xml version="1.0" encoding="utf-8"?>
<!-- Generator: Adobe Illustrator 24.2.1, SVG Export Plug-In . SVG Version: 6.00 Build 0)  -->
<svg version="1.1" id="Capa_1" xmlns="http://www.w3.org/2000/svg" xmlns:xlink="http://www.w3.org/1999/xlink" x="0px" y="0px"
	 viewBox="0 0 500.67 500.2" style="enable-background:new 0 0 500.67 500.2;" xml:space="preserve">
<style type="text/css">
	.st0{fill:#243746;}
	.st1{fill:#131E29;}
	.st2{fill:#243746;stroke:#243746;stroke-width:0.2363;stroke-miterlimit:10;}
	.st3{fill:#FFFFFF;}
	.st4{fill:#EBEBEC;}
</style>
<g>
	<g>
		<path class="st0" d="M344.02,306.18c-2.71,0.11-4.64,2.27-4.64,2.27c2.29,1.48,6.81,2.88,9.33,3.91
			c1.04-8.71,2.14-15.34,3.18-24.05c0.21-1.79,1.73-7.69,2.38-9.37l1.41-0.93l2.6-6.74c2.41,0.33,4.87,0.67,7.28,0.23
			c2.41-0.44,4.78-1.78,5.86-4c0.83-1.72,0.79-3.71,0.74-5.61c-0.19-6.41-0.38-12.83-0.57-19.24c-0.08-2.71-0.19-5.52-1.44-7.91
			c-0.54-1.04-1.35-2.01-2.45-2.38c-2.14-0.71-7.79,0.95-10.04,0.9c0,0,0.53-5.85-2.81-6.68c-1.92-0.48-5.77-0.27-7,1.31
			c-1.23,1.58-1.12,8.15-0.2,9.92c0.4,0.78,2.46-0.17,3.65,0.44l-0.03,1.83c-5.6,0.31-10.85,18.14-10.9,19.04
			c-0.11,2.21,3.76,5.26,3.76,5.26l-0.18,2.9l-12.95,12.4c0,0-5.77,17.03-6.25,19.31c0,0-4.54,1.63-4.93,3.83
			c2.64,0.96,6.05,0.97,9.11,0.62c0.75-5.57,7.3-19.2,7.3-19.2s6.94-4.95,9.85-6.95l-0.91,16.74
			C344.99,296.87,344.02,306.18,344.02,306.18z"/>
		<path class="st0" d="M108.14,167.07c-1.61,1.06-4.12,1.81-5.36,3.23c-1.23,1.42-0.35,3.26-2.15,4.92
			c-2.11,1.94-6.72,3.17-9.48,5.28c-3.57,2.72-7.23,4.97-11.06,7.22c-2.22,1.3-6.16,5.59-8.33,5.63c-3.44,0.05-3.88-4.59-7.07-6
			c-4.7-2.08-4.27-0.61-7.43-5.85c-1.23-2.05-1.01-2.6-2.81-3.84c-1.6-1.1-4.72-0.7-6.58-2.16c-3.24-2.54-3.94-6.26-3.34-10.54
			c1.14-8.08,3.74-16.85,5.6-24.99c0.56-2.43,2.88-11.48,6.56-9c3.22,2.17-1.67,7.28-2.4,9.72c3.2,0.45,7.13-0.27,9.21,2.68
			c0.7-2.76,1.82-5.81,4.91-6.14c-0.06,2.75-0.22,5.68-1,8.2c8.56,4.14,12.47-4.26,10.63-11.19c-1.29-4.87-8.86-9.93-4.46-14.86
			c-2.48-3.42-6.16-3.87-5.03-9.2c0.8-3.8,4.38-6.09,7.85-7.6c1.75-0.76,9.39-3.6,10.72-2.6c1.34,1,1.81,9.87,1.61,11.61
			c1.79,0.27,3.7,0.41,5.51,0.41c-0.29-5.94,7.43-0.47,10.25-2.24c2.95-1.85,2.82-7.55,5.43-9.89c6.22-5.58,15.27-4.59,14.63-15.14
			c-0.11-1.86-0.51-4.48-1.31-6.21c-0.62-1.32-3.1-3.46-3.29-4.49c-0.81-4.45,4.11-8.1,7.1-10.93c4.6-4.35,15.3-16.47,22.09-16.02
			c7.58,0.51,0.15,17.66,5.46,23.28c7.75,8.2,15.75,2.28,20.25-5.8c1.71-3.07,1.41-10.53,3.58-12.72c3-3.02,3.09,7.3,3.29,9.6
			c0.9,10.66,8.13,11.17,14.68,17.69c7.08,7.04,10.57,15.59,12.91,25.35c1.21,5.05,1.27,9.79,3.77,14.71
			c2.54,4.98,3.68,7.26,2.9,13.22c-8.85,1.74-3.7-20.3-16.14-11.51c-7.2,5.09-10.89,16.33-10.21,24.69
			c0.62,7.6,3.08,18.47,12.83,14.85c7.97-2.97,15.34-6.01,24.01-2.12c4.23,1.9,4.68,2.96,5.11,7.5c0.43,4.54,1.41,5.92,3.37,9.98
			c2.9,6.02-0.29,4.54-1.64,9.47c-1.35,4.95,2.95,4.24,5.86,1.41c0.24,8.45,0.93,15,7.88,21.16c6.13,5.44,13.24,11.46,20.94,14.26
			c3.78,1.38,6.49-0.47,9.09,3.28c2.32,3.36,1.2,8.16,2.81,12.03c3.08,7.41,12.67,10.79,14.62,18.68c0.49,1.98-0.51,3.36,0.45,5.36
			c1.22,2.54,4.13,2.94,4.43,5.83c2.89,1.71,4.34,4.78,7.19,6.34c3.43,1.87,5.46,1.25,8.44,4.74c4.14,4.85,9.36,6.64,14.68,11.36
			c2.73,2.42,4.81,5.28,6.57,8.4c2,3.55,3.21,3.65,5.74,6.27c2.47,2.55,3.77,5.97,5.49,9.09c4.42,8.01,13.48,11.42,20.25,17.71
			c3.48,3.24,5.91,3.42,10.11,5.17c3.6,1.5,6.27,4.18,9.33,6.53c6.03,4.62,13.38,8.28,19.18,13.21c3.85,3.27,4.9,6.11,9.77,7.61
			c4.35,1.34,7.24,0.27,11.45-0.74c4.44-1.06,6.57-2.06,10.81-4.22c3.23-1.65,7.59-4.51,11.14-4.51c6.03,0,8.3,4,7.55,9.38
			c-0.74,5.33-3.37,6.62-7.51,9.82c-6.95,5.39-14.81,14.84-18.28,23.16c-1.2,2.88-1.1,10.1-5.05,9.9
			c-5.26-0.26-3.42-10.65-7.45-11.88c-3.32-1.01-11.86,15.06-11.51,1.7c-2.01,0.96-3.48,3.28-5.1,5.24
			c-2.24-1.73-1.63-4.55-2.99-6.91c-1.74-3.03-2.24-2.82-5.51-3.93c-4.63-1.57-9.56-3.25-14.59-3.2c-0.56,4.35,0.1,8.95-4.58,11.16
			c-5.18,2.44-5.99-3.88-9.28-2.55c-2.16,0.87-1.86,6.81-6.21,8.39c-4.64,1.68-9.45-0.25-14.04,0.65
			c-4.71,0.92-4.83,3.54-10.11,1.98c-7.29-2.16-9.63-5.88-13.99-10.12c-5.27-5.11-16.06-9.03-23.24-9.5
			c-6.33-0.42-9.64,5.42-15.87,4.14c-7.25-1.49-11.3-9.43-17.4-12.34c-4.79-2.29-12.47-0.05-17.04,2.01
			c-8.25,3.72-14.71,3.38-23.29,1.4c-2.02-0.47-4.28-0.38-6.27-0.98c-3.19-0.97-3.04-1.56-5.83-3.47c-2.77-1.89-7-3.81-10.1-4.48
			c-11.09-2.42-12.57,3.37-10.4,12.65c-5.02,0.37-10.49-4.61-15.26-2.99c-1.92,0.65-2.85,3.43-4.41,3.75
			c-3.24,0.65-3.53-2.19-5.6-2.93c-1.32-0.47-5.29-1.05-6.59-0.59c-3.65,1.3-1.13,1.45-3.06,4.44c-2.59,4.02-6.19,5.54-11.15,4.89
			c-5.45-0.71-7.47-5.86-12.43-7.03c-4.52-1.07-6.89,2.69-4.72,7.32c1.51,3.24,9.84,8.48,0.92,8.37c-4.21-0.05-9.18-5.71-13.72-3.65
			c-3.32,1.51-3.09,6.93-6.42,9.42c-3.59,2.69-7.52,1.37-11.14,2.79c-4.16,1.62-5.15,5.44-10.62,3.52
			c-4.23-1.48-8.52-6.19-12.39-8.69c-16.91-10.91-31.65-29.43-37.67-48.74c-3.35-10.73-10.11-19.62-13.03-30.38
			c-1.41-5.2-2.72-9.99-2.83-15.29c-0.04-2.15,0.7-4.62,0.44-6.74c-0.28-2.26-2.03-3.02-1.65-5.65c0.13,4.47,3.48,7.65,6,11.06
			c4.47,6.04,2.11,7.39,2.5,13.73c1.78,0.62,3.39,0.26,4.7-1.08c4.19,2.5,5.34,9.26,7.64,13.32c1.66-5.46-4.67-12.31,0.36-15.9
			c-3.82-4.28-5.13-6.9-2.69-12.68c1.78-4.22,4.34-8.73,9.03-9.57c5.08-0.91,13.31,3.36,15.32,8.27c2.36,5.79-3.23,8.09-7,10.37
			c4.43,4.19,5.01,6.06,2.4,11.74c-0.61,1.33-2.44,3.09-2.44,4.49c0.02,4.13,0.57,1.48,3.15,3.12c3.45,2.19,5.28,2.01,4.16,8.21
			c-0.55,3.06-4.05,9.6,1.27,9.95c8.81,0.59-1.74-18.27-1.91-21.94c-0.44-9.72-3.06-16.33,5.33-23.11
			c5.64-4.56,11.31-4.54,17.83-1.64c2.62,1.17,7.37,3.93,9.28,5.98c3.74,4.01,2.23,6.47,0.92,10.77c7.28,2.62,4.12-6.69,6.69-8.92
			c1.43-1.25,5.38,0.07,6.42,1.02c2.37,2.15,0.25,4,1.56,5.98c2.45,3.71,9.3,3.51,12.18,7.23c2.28,2.94,1.94,8.31,2.39,11.91
			c3.65,0.59,2.63-6.33,6.25-8.15c4.07-2.05,9.18,2.58,12.96,0.45c6.43-3.63-2.31-15.45-6.22-18.39
			c-6.68-5.04-15.55-4.95-22.75-8.92c-3.56-1.97-5.61-4.78-8.75-7.28c-3.5-2.78-7.64-4.19-10.96-7.44
			c-2.68-2.63-4.26-7.02-7.47-9.39c-3.52-2.6-8-2.78-11.45-5.62c-5.41-4.45-11.85-15.14-13.36-21.72
			c-1.35-5.94,0.51-20.58,4.39-24.1c3-2.71,6.81-3.24,9.57-6.55c2.69-3.22,3.67-7.89,7.54-10.23c5.15-3.11,3.66,0.08,6.73,3.6
			c2.92,3.35,5.28,3.11,9.82,2.17c3.78-0.78,8.56-2.21,11.71-4.47c3.43-2.46,5.53-5.46,9.87-6.93c7.59-2.57,16.65-3.64,22.11-10.8
			c6.28-8.24-1.27-13.5-5.04-20.21c-1.92-3.43-0.97-6.17-5.17-7.95c-3.56-1.51-8.43-0.41-11.58,0.47c-3.68,1.03-6.25,2.65-10.4,1.94
			c-5.53-0.94-2.83-4.08-7.03-5.85c0.83-0.39,1.44-0.23,2.32-0.21"/>
		<path class="st1" d="M58.49,231.92c2.96-1.59,6.47-0.98,9.17-2.83c2.79-1.91,3.94-6.07,6.23-8.5c3.5-3.73,11.2-9.76,16.66-7.58
			c5.64,2.24,3.55,12.25,4.73,17.59c0.95,4.3,1.16,7.24,5.1,9.08c3.36,1.57,5.99,0.08,8.49,3.69c1.65-0.94,3.11-2.89,4.98-3.67
			c2.42,3.66,5.71,7.6,5.35,12.19c0.75,0.22,1.65,0.29,2.42,0.18c0.48-3.69,0.29-7.08,0.37-10.64c2.46,7.46-0.36,11.99,8.26,14.05
			c2.9,0.69,4.54,2.24,7.39,0.07c2.17-1.66,1.01-4.93,4.31-4.93c-0.48,2.82,0.19,5.37,0.05,8.16c3.79-1.35,15.95-8.68,16.72-2.85
			c0.39,2.99-2.66,6.21-3.3,9.1c-0.76,3.41,0.19,7.61-1.72,10.21c1.33-7.74-4.62-3.31-6.99,0.05c-3.02,4.29-3.81,8.44-3.97,13.65
			c3.4-0.19,4.45-5.84,7.37-7.58c3.82-2.29,5-0.81,8.2-5.22c1.21-1.66,3.49-8.66,4.7-8.51c2.19,0.26,1.57,8.31,1.39,9.95
			c6.59-3.15,10.25-12.2,19.24-9.87c-1.42,7.1-1,17.14-3.7,23.64c-1.22,2.94-4.89,8.32,2.51,7.34c3.69-0.49,4.89-4.92,6.84-7.76
			c1.75,1.74,4.77,4.3,5.09,6.11c0.14-1.77,0.92-4.56,0.5-6.27c-0.61-2.51-3.31-4.15-3.49-7.01c-0.34-5.51,5.4-8.9,7.37-2.6
			c0.57,1.81-1.3,5.38,0.56,6.74c2.44,1.78,4.29-1.17,6.22-1.44c2.5-0.34,6.16,0,8.35,1.18c3.18,1.7,1.97,2.38,4.14,4.96
			c3.47,4.13,6.49,3.53,11.05,4.83c6.09,1.74,6.93,8.08,9.34,13.19c4.13,8.73,4.93,13.88-6.45,16.09
			c-6.25,1.22-11.81,1.22-18.21,0.75c-6.98-0.52-12.11-0.05-18.73,1.11c-8.96,1.57-16.37-5.17-25.56-4.49
			c-3.8,0.28-9.33,0.07-11.16,3.42c-2.68,4.9,1.73,8.86-5.63,5.84c-7.96-3.27-9.22-12.48-16.87-16.19
			c-6.32-3.06-12.91-8.34-18.29-12.74c-6.22-5.08-13.07-7.03-19.87-11.35c-3.44-2.19-6.56-3.83-8.66-7
			c-2.72-4.11-2.18-5.06-7.78-6.39c-10-2.36-13.8-11.28-18.02-19.9c-2.57-5.26-2.43-10.54-2.98-16.31
			c-0.55-5.76-2.93-9.61,1.65-14.41"/>
		<path class="st1" d="M275.09,232.35c2.83,8.87,1.71,20.46-0.36,29.56c-1.43,6.29-2.85,16.41-7.65,21.26
			c-5.98,6.04-16.37,5.56-24.07,6.49c-6.94,0.84-16.18,1.02-21.68-3.79c5.89-2.86,12.4-2.55,18.42-5.92
			c5.36-3.01,5.84-6.11,8.78-11.16c2.67-4.6,4.09-6.83,2.77-12.24c-1.42-5.82-5.92-12.85-4.55-18.98c5.4,2.59,7.62,8.87,12.45,12.44
			c4.31,3.18,4.84,3.53,7.82-0.63c2.25-3.13,6.24-17.97,9.29-12.78"/>
		<path class="st1" d="M57.82,147.79c0.59,2.23,0.77,4.82,0.56,7.24c3.9-0.7,7.29-3.52,11.53-3.7c0.27,0.24-0.05,1.08,0.04,1.43
			c0.48,0.04,1.49,0.01,1.89,0.29c-0.35,2.02-2.05,3.56-2.86,5.33c1.58-0.3,3.24-0.43,4.63-1.59c-1.38,3.84-6.89,3.3-8.72,6.57
			c-1.79,3.2,0.41,8.37-0.52,11.86c-1.47-2.98-1.67-6.64-2.76-9.51c-2.47-6.46-1.35-1.17-5.61-1.03c-5.36,0.17-1.61-15.2,2.34-16.85
			"/>
		<path class="st1" d="M127.4,112.96c1.59,4.94-0.91,11.62-1.72,16.4c4.23,0.5,3.98-1.25,6.5,2.09c0.63,0.83,1.22,2.32,1.84,3.25
			c-0.11-0.17,2.73,3.66,2.37,2.77c1.93,4.79-2.76,13.11-6.53,16.75c-1.2-2.32-1.35-5.61-4.13-6.59c-3.47-1.23-4.32,1.77-7.01,3.68
			c-3.54-4.13-4.69,1.71-6.9,3.69c-5.07,4.53-5.34-1.22-7.88-0.73c-1.47,0.28-4.73,6.09-6.25,7.48c-3.02,2.78-5.97,5.88-8.88,8.4
			c-0.31-7.16,7.03-11.46,8.47-17.28c-4.27-0.43-4.27-4.5-2.53-6.5c1.48-1.71,6.64-3.18,8.66-4.67c6.27-4.62,3.52-14.45,9.8-19.47
			c3.76,3,2.41,7.25,2.29,11.58c3.91-0.8,7.86-3.96,9.22-7.67c1.12-3.07-1.11-11.84,3.53-11.48c0.09,0.49-0.14,1.02-0.04,1.47"/>
		<path class="st1" d="M122.56,88.72c0.38,3.8,0.38,6.77,4.75,4.05c0.39,3.36,2.42,1.28,3.54,2.78c1.18,1.57,1.35,2.49,1.67,4.81
			c0.44,3.17-0.09,7.84,2.45,9.92c5.69,4.68,17.46,2.46,24.35,4.59c-0.08,1.96-0.27,3.95-0.36,5.93c-3.68-2.24-9.1-2.45-13.27-4.55
			c-4.79-2.4-10.74-4.28-14.89-7.21c-3.52-2.49-4.26-6.91-6.44-9.93c-1.83-2.54-3.17-0.16-3.3-4.27c-0.06-1.78,1.34-3.44,1.95-5.05"
			/>
		<path class="st1" d="M154.42,72.39c-1.56,4.32-4.98,8.14-7.63,11.82c3.49,0.62,6.93-2.06,9.1,1.28c1.75,2.69-0.87,5.32-1.52,7.68
			c-1.45,5.27,0.15,10.14-0.63,15.46c4.93-0.97,8.06-10.79,8.46-15.36c3.56,0.45,5.23,6.8,7.87,9.31c2.64,2.51,4.88,3.02,7.95,4.71
			c2.47-7.47,1.08-8.85-5.74-11.8c-5.72-2.48-3.91-2.44-3.11-7.72c0.84-5.59-9.18-20.26-15.38-13.88"/>
		<path class="st0" d="M17.57,291.19c1.65,2.44,3.81,4.45,5.3,7c1.68,2.88,0.85,5.91,5.07,6.25c6.07,0.48,6.24-7.9,7.23-11.86
			c0.57-0.15,0.82-0.28,1.32-0.54c-7.69-0.56-11.32-6.5-13.46-13.25c7.01-5.63,7.23-0.68,15.42,1.16c8.82,1.98,12.81-7.52,20.8-5.85
			c0.42,5.08-5.63,15.94-10.88,17.18c-4.16,0.98-5.34-2.58-9.04-3.69c-2.47-0.74-8.04,1.71-8.57-3.44
			c-0.53-5.13,11.25-10.64,13.49-15.21c4.68-9.56-5.55-16.79-5.8-26.04c-0.17-6.32-1.17-10.55-2.71-16.71
			c-0.87-3.52,0.44-12.95-4.78-13.46c-7.64-0.74-3.54,13.37-3.47,16.53c0.04,1.7,0.38,4.98-1.38,6c-2.66,1.55-3.51-1.95-5.62-1.52
			c-2.11,0.43-5.8,4.99-6.11,6.97c-0.75,4.77,1.93,2.55,3.64,5.35c2.21,3.63-1.63,10.68-1.76,15.44c-0.07,2.47-0.87,6.47-0.7,8.77
			c0.3,3.98,2.48,3.85,4.27,6.95c1.51,2.62,3.08,12.3-1.18,13.52"/>
		<path class="st0" d="M76.72,422.73c3.29-1.21,7.16-3.12,10.69-4.27c4.43-1.44,7.91,0.26,12.39,0.81
			c11.39,1.41,23.57-3.04,34.27-6.74c6.2-2.15,24.5-7.97,25.75,1.8c0.37,2.87-2.71,10.68-4.65,12.66c-1.38,1.4-3.06,0.09-4.4,1.6
			c-1.88,2.12-1.46,3.48-1.9,6.22c-1.43,8.82-4.95,19.08-12.3,24.38c-6.37,4.59-16.59,5.4-22.76-0.49
			c-3.55-3.38-5.95-9.17-10.47-11.55c-4.21-2.21-7.11-1.7-11-4.97c-4.64-3.9-6.26-6.3-8.3-11.64c-1.34-3.49-2.67-6.98-5.64-9.24"/>
		<path class="st0" d="M191.54,405.77c-6.56-0.51-17.11-7-22.17,0.02c-1.94,2.7-3.9,8.75-5.21,11.98
			c-2.29,5.64,0.86,6.47,3.76,10.26c4.7,6.13-1.97,15.51-3.27,22.98c-1.06,6.12,2.17,4.49,4.49,9.19c1.82,3.67-0.33,8.23,0.75,11.95
			c1.16,4.01,3.92,11.69,8.11,7.31c4.58,3.96,5.23,7.54,11.28,9.16c6.1,1.63,12.37,1.12,18.47,2.4c6.23,1.31,8.61,3.66,13.78-0.12
			c3.96-2.9,6.45-6.84,9.64-10.46c5.76-6.54,15.67-10.15,18.22,0.81c1.38,5.95-1.5,8.31,6.05,8.53c4.36,0.13,8.06-1.76,12.11-1.48
			c6,0.41,8.93,4.7,13.5,0.38c1.37-1.3,1.74-3.95,3.02-5.49c1.75-2.1,4.16-2.37,5.92-4.11c3.76-3.71,0.69-7.51,2.94-11.85
			c1.88-3.63,7.38-8.03,10.24-11.19c2.88-3.19,6.93-5.02,7.01-9.86c0.06-3.67-2.95-8.81-4.9-11.9c-2.67-4.23-6-7.82-7.17-12.85
			c-1.05-4.5-0.6-9.85-3.71-13.77c-2.97-3.74-6.35-2.66-10.39-4.79c-3.43-1.81-5.63-6.7-10.44-5.51c-5.8,1.44-4.66,6.09-11.81,5.28
			c-5.31-0.6-7.77-2.6-12.63-4.57c-4.04-1.64-8.7-1.68-13.31-2.02c-4.8-0.35-8.21-1.54-12.61-2.62c-6.12-1.49-6.14,1.84-10.77,5.04
			c-3.26,2.25-6.73,2.35-10.69,2.84c-4.55,0.56-9.04,0.87-9.81,6.38c-0.23-0.46-0.27-0.94-0.42-1.42"/>
		<path class="st0" d="M322.73,424.8c-1.42-0.39-2.91-0.28-4.11,0.33c3.19,4.73,0.6,6.87,0.6,11.35c0,3.59,2.71,10.25,5.32,12.72
			c3.22,3.04,8.59,2.37,12.08,5.03c3.57,2.72,4.04,9.48,8.43,4.92c4.41-4.59-0.37-20.06-5.02-23.35c-1.8-1.27-4.05-0.41-5.97-1.99
			c-2.01-1.65-1.6-4.38-3.26-5.96c-3.12-2.96-7.93-1.93-8.47,2.11"/>
		<path class="st1" d="M310.39,483.07c5.4-4.37,4.36-7.36,12.1-8.98c5.27-1.1,11.83-3.33,17.2-2.27c1.23,5.8-10.97,3.95-14.5,6
			c-2.33,1.36-4.09,4.68-6.16,5.76c-2.58,1.34-6.04-0.98-8.25,1.08"/>
		<path class="st1" d="M20.97,300.78c1.39,3.89,4.04,7.65,5.34,11.27c1.49,4.17,0.95,7.39,0.18,11.9c4.33-0.32,5.27-4.07,9.18-0.8
			c1.47,1.22,3.87,5.96,4.6,7.57c0.81-3.7-1.39-7.18-0.24-11.31c-2.67-4.06-2.98-12.68,0.99-16.63c3.71-3.69,12.73-5.14,15.69,0.12
			c2.43,4.33-0.87,12.35-0.32,16.99c0.62,5.23,0.45,9.2-0.67,14.52c11-0.65,3.39,16.48,8.61,19.44c7.53,4.27,1.29-22.08,0.66-24.83
			c-0.99-4.29-1.9-8.03-2.24-12.18c-0.21-2.54-2.32-10.98-1.11-13.07c3.2-5.52,6.11,2.77,9.17,2.79c1.76,0.01,3.38-2.54,5-3.16
			c3.09-1.18,4.35-0.59,7.52-0.07c5.43,0.89,13.19,3.27,15.4,9.01c1.55,4.04-5,12.61,1.15,13.4c2.79-4.66,0.74-12.17,8.18-13.28
			c1.03,2.74,2.82,8.11,5.4,9.82c3.86,2.55,9.11,0.94,13.37,4.6c9.05,7.78-3.93,13.76-8.11,20.98c-2.69,4.66-0.07,6.27,4.2,2.63
			c3.88-3.31,2.88-6,7.59-6.2c3.13-0.13,2.83,1.62,6.15-0.2c1.78-0.97,3.21-3.56,5.17-4.7c4.3-2.5,6.47-1.54,8.04,3.07
			c2.87,8.45-3.06,21.23,0.85,28.7c3.18-4.35-0.01-14.9,5.41-17.79c4.47,7.98,0.38,14.6,11.93,8.12c2.24-1.25,8.13-4.32,11.09-2.36
			c2.54,1.68,3.21,10.7,3.13,13.68c8.96-0.3,7.42-15.35,13.61-16.91c-0.25,1.79-0.24,3.73,0.26,5.48
			c7.04,1.81,3.59-11.54,8.56-11.12c6.13,0.51,3.19,9.61-0.71,11.16c4.81,0.68,13.12,1.4,11.17,8.62c3.27,2.22,6.94,1.64,5.98,7.17
			c0.19-1.1-3.24,4.85-2.25,4.12c-1.67,1.25-3.55,1.65-5.73,1.03c-0.68-5.61-18.4-11-18.79-5.98c-0.27,3.53,7.83,5.22,0.46,7.33
			c-4,1.14-7.52-0.97-11.5,1.32c-4.8,2.76-4.65,4.31-10.58,2.36c-3.81-1.26-7.22-3.44-11.63-1.92c-7.87,2.71-9.42,14.01-19.54,9.76
			c-4.23-1.78-6.71-5.04-11.46-5.94c-5.64-1.07-8.37,1.2-4.79,6.54c2.08,3.09,7.03,5.2,0.61,7.18c-4.03,1.25-8.37-1.98-12.34,0.22
			c-3.41,1.89-5.28,5.06-9.43,6.6c-4.1,1.52-7.07,0.92-10.91,1.79c-7.8,1.77-15.69,3.99-23.64,0.85
			c-10.82-4.28-14.43-14.78-20.33-23.55c-6.52-9.69-12.03-21.18-16.02-32.19c-2.27-6.27-5.35-11.56-7.11-18.07
			c-1.15-4.27-1.83-8.18-2.63-12.77c-1.38-7.98-5.95-18.01-3.54-26.19c0.22-0.74,0.12-1.69,0.17-2.47c1.33,2.41,0.02,5.55,1.09,7.62
			c1.31,2.54,3.96,1.65,4.2,4.57"/>
		<path class="st1" d="M248.74,304.11c-0.71-0.74-1.59-1.3-2.45-1.79c-0.42,0.3-1.14,0.62-1.5,0.9c-0.09-0.91-0.99-1.96-1.02-3.02
			c-0.65-0.1-1.22-0.13-1.88-0.14c-2.78,4.16,2.45,6.71,4.19,10.09c1.87,3.64,1.5,6.95,5.72,9.62c6.58,4.16,17.11,8.83,24.93,10.68
			c8.53,2.03,18.56,2.28,26.93-0.47c5.54-1.82,7.39-4.54,9.65-9.67c1.51-3.42,4.73-8.26,0.91-10.48c-5.51-3.2-8.71,7.48-16.01,5.62
			c-1.26-5.13-3.08-5.15-8.04-5.69c-7.42-0.81-4.44-2.59-7.64-6.81c0.46,0.61-4.38-2.61-3.97-2.36c-1.93-1.21,0.31-2.99-3.31-2.19
			c-4.8,1.05-2.96,6.14-9.24,4.82c-0.48-8.7-17.41-2.15-9.61,8.09c-4.44,3.63-6.36-3.03-5.71-6.47c-1.8-0.18-4.92-1.34-5.5-1.52"/>
		<path class="st1" d="M250.55,340.58c-4.78,0.71-13.92-0.13-14.43,6.64c4.83,0.77,10.02-2.02,15.39-1.29
			c-1.44,1.23-3.08,2.66-4.11,4.32c1.74-0.33,3.27-0.52,4.96-0.63c-0.23,0.74-0.23,1.62-0.56,2.41c0.6-0.22,1.39-0.21,2.1-0.62
			c-0.08,0.58-0.28,1.22-0.11,1.79c2.41,0.23,4.84-0.21,7.14-0.37c-1.69,8.09,25.7-2.89,29.28-3.57c0.09,0.5,0.01,0.94,0.07,1.44
			c2.25,0.48,4.81,0.39,7.01,0.14c-1.42,1.14-1.41,2.58-2.13,3.85c6.8,1.33,27.84-6.94,30.91-14.29c-1.81-0.24-3.55,0.18-5,1.17
			c1.06-4.37,6.25-7.32,9.09-10.68c-0.91-0.36-1.31-1.36-2.99-1.35c2.55-9.22-10.03,0.29-11.7,1.29c-2.15,1.29-4.75,1.74-7.33,2.09
			c-2.93,0.4-4.22,0.55-7.5,1.89c-10.19,4.13-22.29,9.27-33.59,7.94c-0.08-0.5,0.05-0.91-0.04-1.41c-3.76,0.13-9.89-1.72-13.27-0.59
			c-0.12-4.29-5.67-1.37-7.77-1.04"/>
		<path class="st1" d="M236.73,384.71c-0.29,0.53,0.51,1.38-1.06,0.89c1.58-4.05-1.14-23.21,8.17-20c-0.01,0.91,0.53,1.49,0.49,2.46
			c2.04,0.27,4.24-0.61,6.12-0.95c0.97,2.72,4.78,1.79,7.16,1.05c1.78,2.68,6.22,1.87,9.18,2.24c-0.87,3.09,0.44,2.8,2.38,3.73
			c1.37,0.66,5.89,1.85,7.09,2.12c4.7,1.07,8.36,0.13,12.09-2.37c3.59-2.41,6.29-4.84,10.75-6.36c5.84-1.98,4.46,0.53,9.8,2.28
			c4.16,1.37,5.78-0.48,9.73,3.18c4.3,3.99,5.8,6.65,11.54,8.36c3.99,1.2,6.51,2.74,8.53,6.74c1.46,2.9,4.46,8.83,4.12,12.24
			c-0.42,4.25-5.53,7.93-9.51,8.65c-5.51,1-7.56-2.28-10.41-5.85c-6.39-8.03-13.06-13.15-23.88-12.91c-4.3,0.1-5.07,2.82-10.08,3.02
			c-3.27,0.13-9.56,0.61-11.5-0.2c-3.47-1.46-5.46-5.9-9.15-7.43c-3.45-1.43-8.96-2.38-12.8-2.11c-6.77,0.48-11.15-0.44-17.94-1.39
			c-0.45-1.57,0.36-0.96,1.06-1.4"/>
		<path class="st1" d="M333.76,336.86c-1.68,1.31-5.35,3.11-6.64,5.24c-2.53,4.17-0.14,0.8,1.79,3.75c1.91,2.92,1.76,0.61-0.26,4.66
			c-0.86,1.72-2.43,2.99-3.02,4.84c1.18-0.16,2.78,0.62,3.98,0.48c-1.52,5.15,12.03,4.26,14.3,4.14c7.45-0.39,12.49-3.61,19.3-5.33
			c4.67-1.18,27.99,9.98,25.84,16.31c-6.13,3.25-7.94-2.35-12.59-3.5c-5.23-1.29-13.15,6.31-12.21-3.9
			c-2.23,0.74-2.56-0.07-4.05-0.87c8.68-7.05-6.56-8.84-7.11-6.83c0.39-1.41,0.05-3.14,0.72-4.46c-2.03-0.33-4.2-0.53-6.07-0.06
			c0.84-4.01,6.37-2.24,8.7-0.94c0.58-0.65,1.18-2.11,1.28-2.84c-5.63-1.41-7.99-8.78-14.59-10.08c-0.36-1.46-0.9-1.38-1.4-2.03
			c-0.74,2.04-1.34,4.16-0.25,6.09c-2.8-3.27-0.09-7.55-4.1-10.07c-0.92,3.6,0.38,9.53,3.21,11.63c-1.26,0.93-2.98,1.15-4.7,0.6
			c0.42-2.68,0.89-5.82-2.77-5.32"/>
		<path class="st1" d="M358.16,376.03c-0.64-4.38-14.31,5.61-15.18,9.16c2.75,0.72,4.93-0.96,7.68-0.29
			c-0.73,1.14-1.19,3.23-1.75,4.39c3.37,0.65,1.42,4.8,0.5,6.77c5.88,1.09,4.66-8.48,12.33-6.71c-0.08,6,23.52-4.7,27.21-3.7
			c0.1,0.5-0.07,0.91,0.04,1.41c1.79,0.33,3.58,0.13,5.04-0.52c0.02,0.86,0.51,1.62,0.52,2.49c2.46-0.28,5.34-0.81,4.98,2.44
			c3.42-0.12,9.03-1.3,12.34-2.06c-1.4,1.35-2.77,2.62-3.74,4.25c0.27,0.31,1.04,0.11,1.42,0.26c-0.1,0.57-0.22,1.87-0.04,2.44
			c4.05,0.91,7.61-2.7,11.03-4.25c-0.2,0.86,0.15,2.1-0.05,2.98c2.9-0.08,7.52-1.6,7.65-4.98c2.6,1.87,6.13,0.07,7.47-3.14
			c1.56-3.71-0.4-5.51,3.73-8.57c2.83-2.1,15.01-11.18,10.77-16.49c-2-2.51-8.82-0.93-10.42,0.42c-2.81,2.37-3.2,6.78-5.54,9.45
			c-3.84,4.41-10.98,8.36-15.85,11.75c-0.45-4.61-6.19,0.56-8.95,0.45c-2.54-0.1-8.11-2.44-7.41-5.68c-1.45,0.15-3.12-0.42-4.5,0.03
			c-0.22-0.54-0.37-0.93-0.62-1.45c-4.54,4.78-4.65,2.06-9.28,1.18c-4.59-0.87-6.47,3.6-11.04,2.87c0.18-1.67-1.62-5.56-3.78-5.46
			c-3.12,0.14-2.52,6.53-6.37,2.75c0.14,1.08-0.18,2.49,0.09,3.53c-2.01-1.19-6.34-4.29-7.29-5.14"/>
		<path class="st1" d="M182.27,191.06c1.33,4.99-0.81,11.86-4.66,15.1c0.13-0.99,0.16-1.66,0.58-2.49
			c-0.26,2.31-1.28,5.98-2.46,8.01c-0.89,1.53-2.93,2.24-2.61,4.24c2.37-0.13,4.38-4.15,5.88-6.01c-0.03,2.59-0.98,5.25-0.83,7.78
			c1.56-0.41,1.84-2.21,3.56-2.7c-0.3,1.24,0.11,1.95,0.58,2.99c0.53-0.41,1.6-0.63,2.04-1.17c-0.07,5.49-1.63,11.51,1.11,16.61
			c0.89,1.66,2.53,2.59,3.16,4.8c0.53,1.85,0.07,3.83,0.96,5.31c1.04-0.94,2.09-2.23,3.32-2.88c1.5,3.77,3.01,2.67,5.93,3.86
			c2.46,1.01,3.11,3.46,6.27,3.5c1.27,0.02,2.38-1.06,3.58-1.06c2.05,0,2.73,1.41,4.3,1.72c2.74,0.55,4.46,0.01,4.7-3.09
			c-5.6,3.98-13.97-4.2-19.05-7.75c-4.35-3.03-7.27-9.9-8.22-15.06c-0.24-1.3,0.04-2.93-0.27-4.17c-0.32-1.27-1.45-2.02-1.76-3.24
			c-0.81-3.26,0.64-6.56-0.67-9.74c-0.7-1.69-1.51-1.62-1.81-3.6c-0.22-1.45,0.5-3.02,0.27-4.48c-0.11-0.72-2.19-7.32-3.26-7.12
			c-0.06-0.01-0.12-0.01-0.18-0.02c-0.33,2.25,0.13,5.16-1.63,6.76"/>
		<path class="st1" d="M197.87,185.98c3.68,4.77,2.29,11.95,2.77,17.44c0.51,5.72,2.65,6.28,7.82,5.54c-0.06,1.1-0.4,4.14,0.78,4.78
			c2.09,1.14,3.45-2.35,5.29-2.31c2.56,0.05,1.65,2.16,3.28,3.29c1.38,0.96,3.7,0.66,5.32,0.86c0.76,3.18,0.08,5.6-2.48,7.03
			c-2.66,1.48-4.65,0.51-4.87,4.43c2.21,0.51,6.26,0.08,8.3-0.8c2.41-1.03,3.9-3.11,6.81-3.87c0.06,2.18-5.76,6.44,0.27,6.2
			c2.91-0.12,7.83-4.96,9.16-7.64c1.98-4-0.71-4.66-2.42-7.86c-1.83-3.41-0.02-4.95-0.07-8.53c-3.11-0.13-2.99,6.14-7.01,5.32
			c-3.87-0.79-0.76-4.37-2.51-6.48c-1.5,0.98-7.15,13.21-6.87,3.63c0.05-1.59,1.73-5.06,0.15-6.16c-1.56-1.09-4.11,1.18-5.25,1.66
			c-0.22-0.59-0.79-3.49-1.24-3.78c-2.15-1.38-1.46,0.84-2.91,1.81c-4.47,2.98-0.68-1.56-1.28-4.61c-0.62-3.15-4.06-2.32-6.15-4
			c-1.17-0.94-0.85-2.96-2.63-2.88c-1.49,0.06-2.17,2.87-2.46,4.22c-0.24-0.17-0.44-0.38-0.59-0.63"/>
		<path class="st1" d="M185.21,166.71c1.13,2.73-2.23,3.61-1.84,6.39c1.26-0.05,2.66-1.66,3.82-1.52c2.15,0.26,0.49,0.32,1.27,1.86
			c0.73,1.44,0.22,4.28,2.02,5.1c2.01,0.91,8.63-2.72,10.03-4.22c1-1.07,2.55-2.57,1.27-4.22c-1.59-2.06-3.34,0.19-5.08-0.2
			c-3.07-0.68-4.41-5.64-8.11-6c-0.18,1.34-0.97,1.67-1.62,2.25"/>
		<path class="st1" d="M300.96,457.97c5.12-12.07,0.05-14.34-9.52-20.69c-10.32-6.84-16.92-8.99-19.54,5.93
			c-9.62,0.81-24.6-3.36-33.62-6.37c-0.27,2.48-2.08,5.91-1.82,8.95c-7.09-0.31-11.28-7.08-18.87-6.24
			c-2.9,14.33-12.11,0.14-17.52-3.58c-5.6-3.85-17.63-9.09-25.05-8.99c-0.55,3.98-0.7,8.14-1.26,12.1
			c-16.22-3.36-6.69,37.42-2.2,43.34c11.23,14.79,32.02,15.7,46.8,7.61c7.08-3.88,11.58-11.94,18.01-13.92
			c11.61-3.59,9.54,4.29,14.49,9.57c11.13,11.88,29.34,1.15,38.01-8.92c3.71-4.31,5.91-9.24,9.84-13.49c4.9-5.31,10.11-5.82,9.08-15
			c-3.41,0.46-2.78-1.99-3.79-2.51"/>
	</g>
	<g>
		<path class="st0" d="M227.81,29.4l-10.67,0.83l-0.67-9.29l31.55-2.44l0.67,9.29l-10.67,0.83l4.05,55.72l-10.21,0.79L227.81,29.4z"
			/>
		<path class="st0" d="M265.79,19.4l13.8,1.28l4.26,65.9l-10.19-0.94l-0.6-13.06l-0.02,0.19l-11.57-1.07l-3.08,12.54l-9.45-0.87
			L265.79,19.4z M272.7,63.83l-1.42-32.51l-0.18-0.02l-7.56,31.68L272.7,63.83z M275.12,5.1l11.11,1.03l-10.94,9.75l-7.69-0.71
			L275.12,5.1z"/>
		<path class="st0" d="M288.96,84.79c-1.69-3.44-1.79-7.7-0.28-12.77l14.17-47.74l9.81,2.88l-14.39,48.45
			c-0.64,2.15-0.67,3.82-0.09,5.03c0.58,1.21,1.67,2.05,3.28,2.52s2.98,0.36,4.13-0.34c1.14-0.7,2.04-2.12,2.67-4.27l14.39-48.45
			l9.45,2.77l-14.17,47.74c-1.5,5.07-3.91,8.59-7.21,10.57c-3.3,1.98-7.33,2.27-12.09,0.88C293.88,90.65,290.66,88.24,288.96,84.79z
			"/>
		<path class="st0" d="M346.66,38.69L358,44.68l-9.53,39.18l0.16,0.09l18.32-34.54l8.05,4.25l-30.6,57.7l-9.28-4.9l11.5-47.85
			l-0.16-0.09l-22.34,42.12l-8.05-4.25L346.66,38.69z"/>
		<path class="st0" d="M366.67,124.8c0.19-3.84,2.18-7.62,5.94-11.33l35.51-34.95l7.16,7.29l-36.04,35.48
			c-1.6,1.57-2.43,3.03-2.51,4.36c-0.08,1.34,0.47,2.6,1.64,3.8c1.17,1.19,2.43,1.76,3.76,1.7c1.34-0.06,2.81-0.87,4.4-2.44
			l36.04-35.48l6.9,7.02l-35.51,34.95c-3.77,3.71-7.57,5.63-11.41,5.76c-3.84,0.13-7.49-1.57-10.96-5.11
			C368.11,132.32,366.47,128.64,366.67,124.8z"/>
		<path class="st0" d="M389.06,148.97c0.94-3.69,3.61-7.01,8-9.95l3.1-2.08l5.36,8.04l-3.72,2.49c-3.51,2.36-4.29,5-2.33,7.94
			c0.96,1.44,2.12,2.25,3.47,2.43c1.35,0.18,2.98-0.38,4.89-1.66c2.27-1.52,3.93-3.38,4.97-5.57c1.04-2.19,1.85-5.49,2.42-9.9
			c0.76-5.58,1.93-9.91,3.51-12.98c1.58-3.07,3.94-5.66,7.09-7.78c4.29-2.87,8.33-4.02,12.12-3.43c3.79,0.59,7.06,2.94,9.81,7.07
			c2.71,4.07,3.59,7.94,2.63,11.6c-0.96,3.66-3.63,6.97-8.02,9.91l-2.25,1.51l-5.36-8.04l2.79-1.87c1.86-1.25,2.97-2.52,3.35-3.81
			c0.37-1.29,0.09-2.64-0.83-4.03c-1.89-2.84-4.57-3.09-8.02-0.77c-1.96,1.32-3.44,3.07-4.44,5.27c-1,2.2-1.79,5.5-2.36,9.92
			c-0.73,5.63-1.91,9.97-3.55,13.01c-1.64,3.04-4.16,5.7-7.57,7.98c-4.44,2.98-8.58,4.17-12.42,3.57c-3.84-0.6-7.14-2.98-9.93-7.16
			C389.02,156.56,388.12,152.66,389.06,148.97z"/>
		<path class="st0" d="M462.2,149.38l3.94,9.44l-24.47,10.34l4.23,10.12l24.47-10.34l3.94,9.44l-60.1,25.39l-3.94-9.44l27.05-11.42
			l-4.23-10.12l-27.05,11.42l-3.94-9.44L462.2,149.38z"/>
		<path class="st0" d="M419,209.65c2.26-3.12,5.97-5.21,11.14-6.27l48.72-9.96l2,10.04l-49.45,10.11c-2.19,0.45-3.68,1.21-4.48,2.29
			c-0.8,1.08-1.03,2.44-0.7,4.09c0.33,1.64,1.06,2.81,2.21,3.49c1.15,0.68,2.82,0.8,5.01,0.35l49.45-10.11l1.93,9.67l-48.72,9.96
			c-5.17,1.06-9.39,0.59-12.67-1.4c-3.28-1.99-5.4-5.42-6.37-10.29C416.09,216.77,416.74,212.77,419,209.65z"/>
		<path class="st0" d="M486.37,246.87l0.05,13.88l-65.09,11.14l-0.03-10.25l12.93-1.97l-0.19,0l-0.04-11.64l-12.75-1.76l-0.03-9.5
			L486.37,246.87z M442.87,258.39l32.18-4.82l0-0.19l-32.2-4.21L442.87,258.39z"/>
		<path class="st0" d="M484.41,285.84l-1.54,10.14l-64.38-9.54l1.54-10.14L484.41,285.84z"/>
		<path class="st0" d="M477.3,320.47l-4.21,13.24l-65.27-9.38l3.11-9.78l12.89,2.1l-0.18-0.06l3.53-11.11l-11.58-5.6l2.88-9.07
			L477.3,320.47z M432.42,318.09l32.05,5.29l0.06-0.18l-29.31-13.91L432.42,318.09z"/>
	</g>
</g>
</svg>
