<?xml version="1.0" encoding="utf-8"?>
<!-- Generator: Adobe Illustrator 24.2.1, SVG Export Plug-In . SVG Version: 6.00 Build 0)  -->
<svg version="1.1" id="Capa_1" xmlns="http://www.w3.org/2000/svg" xmlns:xlink="http://www.w3.org/1999/xlink" x="0px" y="0px"
	 viewBox="0 0 500 500" style="enable-background:new 0 0 500 500;" xml:space="preserve">
<style type="text/css">
	.st0{fill:#243746;}
	.st1{fill:#131E29;}
	.st2{fill:#243746;stroke:#243746;stroke-width:0.2363;stroke-miterlimit:10;}
	.st3{fill:#FFFFFF;}
	.st4{fill:#EBEBEC;}
</style>
<g>
	<circle class="st0" cx="250" cy="250.46" r="250"/>
	<g>
		<g>
			<g>
				<path class="st3" d="M338.65,290c-2.44,0.28-4.03,2.36-4.03,2.36c2.17,1.18,6.35,2.15,8.7,2.91c0.32-7.94,0.85-14,1.17-21.94
					c0.07-1.63,1.02-7.06,1.49-8.62l1.21-0.94l1.87-6.26c2.2,0.14,4.45,0.28,6.59-0.28c2.14-0.55,4.19-1.93,5-4.01
					c0.63-1.61,0.45-3.4,0.27-5.12c-0.63-5.78-1.25-11.56-1.87-17.34c-0.26-2.44-0.56-4.98-1.86-7.05c-0.56-0.9-1.36-1.72-2.39-1.98
					c-1.98-0.5-6.97,1.38-9.01,1.48c0,0,0.07-5.32-3.01-5.85c-1.77-0.31-5.23,0.14-6.23,1.65c-1,1.51-0.43,7.44,0.52,8.98
					c0.42,0.67,2.21-0.32,3.32,0.15l0.1,1.65c-5.03,0.65-8.52,17.11-8.49,17.93c0.06,2,3.76,4.5,3.76,4.5l0.04,2.63l-10.81,12.06
					c0,0-4.01,15.77-4.28,17.86c0,0-3.98,1.78-4.19,3.78c2.45,0.69,5.53,0.47,8.27-0.05c0.28-5.08,5.24-17.83,5.24-17.83
					s5.92-4.93,8.41-6.93l0.37,15.18C338.86,281.53,338.65,290,338.65,290z"/>
				<path class="st3" d="M115.78,180.09c-1.38,1.06-3.59,1.91-4.61,3.27c-1.01,1.36-0.09,2.97-1.59,4.58
					c-1.77,1.9-5.84,3.31-8.19,5.4c-3.03,2.7-6.18,4.97-9.47,7.26c-1.91,1.32-5.17,5.46-7.13,5.64c-3.11,0.28-3.82-3.88-6.81-4.95
					c-4.39-1.57-3.9-0.27-7.12-4.79c-1.26-1.77-1.1-2.29-2.81-3.28c-1.52-0.88-4.31-0.32-6.09-1.51c-3.1-2.08-4-5.4-3.76-9.3
					c0.46-7.37,2.18-15.47,3.29-22.95c0.33-2.23,1.79-10.56,5.29-8.57c3.06,1.75-0.99,6.69-1.48,8.94c2.92,0.19,6.42-0.72,8.5,1.81
					c0.43-2.54,1.24-5.37,4-5.87c0.14,2.49,0.21,5.14-0.33,7.47c8.02,3.16,10.96-4.68,8.81-10.82c-1.51-4.31-8.71-8.38-5.08-13.12
					c-2.48-2.93-5.83-3.09-5.2-7.97c0.46-3.49,3.53-5.79,6.56-7.38c1.52-0.8,8.22-3.88,9.5-3.07c1.28,0.81,2.34,8.8,2.27,10.38
					c1.64,0.12,3.37,0.12,5.01,0c-0.68-5.35,6.68-0.92,9.1-2.71c2.53-1.86,2.02-7.01,4.2-9.29c5.22-5.46,13.47-5.16,12.14-14.65
					c-0.23-1.68-0.77-4.02-1.62-5.52c-0.65-1.15-3.04-2.92-3.29-3.83c-1.05-3.97,3.14-7.59,5.64-10.35
					c3.84-4.24,12.65-15.9,18.81-15.94c6.88-0.04,1.38,15.94,6.58,20.66c7.58,6.89,14.38,1.01,17.88-6.59
					c1.33-2.89,0.53-9.61,2.33-11.73c2.49-2.93,3.31,6.39,3.65,8.45c1.57,9.57,8.13,9.55,14.51,15
					c6.89,5.89,10.65,13.38,13.45,22.04c1.45,4.48,1.84,8.76,4.44,13.03c2.64,4.33,3.84,6.31,3.56,11.74
					c-7.87,2.16-4.78-18.09-15.39-9.32c-6.15,5.08-8.68,15.48-7.48,22.98c1.09,6.82,4.09,16.48,12.64,12.55
					c6.99-3.21,13.43-6.45,21.53-3.52c3.96,1.43,4.44,2.36,5.15,6.44c0.71,4.07,1.7,5.26,3.75,8.79c3.05,5.25,0.06,4.12-0.81,8.66
					c-0.87,4.56,2.97,3.64,5.39,0.88c0.82,7.62,1.9,13.49,8.61,18.59c5.92,4.5,12.76,9.46,19.92,11.48
					c3.51,0.99,5.83-0.86,8.44,2.36c2.33,2.88,1.66,7.29,3.39,10.68c3.31,6.48,12.2,8.9,14.52,15.89c0.58,1.76-0.22,3.07,0.79,4.81
					c1.28,2.22,3.94,2.38,4.42,4.97c2.73,1.35,4.26,4.03,6.94,5.25c3.23,1.46,5.02,0.77,7.96,3.72c4.09,4.11,8.92,5.37,14.06,9.28
					c2.64,2,4.72,4.45,6.53,7.15c2.06,3.07,3.15,3.08,5.63,5.28c2.41,2.14,3.82,5.14,5.6,7.84c4.56,6.94,12.99,9.42,19.54,14.65
					c3.37,2.69,5.58,2.7,9.49,4c3.36,1.12,5.96,3.36,8.89,5.27c5.77,3.77,12.67,6.59,18.25,10.66c3.7,2.7,4.86,5.19,9.36,6.22
					c4.02,0.92,6.56-0.24,10.29-1.43c3.94-1.26,5.79-2.3,9.46-4.53c2.8-1.7,6.54-4.58,9.74-4.81c5.44-0.4,7.78,3.06,7.48,7.97
					c-0.3,4.86-2.58,6.2-6.08,9.37c-5.9,5.33-12.33,14.39-14.87,22.14c-0.88,2.68-0.28,9.2-3.86,9.28
					c-4.77,0.11-3.84-9.39-7.57-10.23c-3.07-0.69-9.65,14.4-10.27,2.3c-1.75,1-2.91,3.19-4.23,5.07c-2.15-1.42-1.79-4-3.19-6.05
					c-1.79-2.62-2.22-2.4-5.25-3.18c-4.29-1.11-8.87-2.3-13.4-1.92c-0.2,3.96,0.72,8.08-3.34,10.38c-4.51,2.55-5.69-3.1-8.56-1.68
					c-1.88,0.93-1.2,6.28-5.01,7.99c-4.07,1.83-8.55,0.41-12.63,1.53c-4.18,1.14-4.11,3.52-8.99,2.46
					c-6.74-1.47-9.11-4.67-13.35-8.2c-5.12-4.26-15.14-7.08-21.66-7.03c-5.75,0.05-8.32,5.54-14.04,4.8
					c-6.65-0.86-10.88-7.77-16.59-9.98c-4.49-1.74-11.26,0.79-15.25,2.95c-7.18,3.91-13.04,4.03-20.94,2.81
					c-1.86-0.29-3.9-0.06-5.73-0.47c-2.95-0.67-2.85-1.21-5.51-2.74c-2.64-1.52-6.59-2.97-9.44-3.38
					c-10.18-1.45-11.11,3.88-8.5,12.12c-4.51,0.67-9.8-3.46-13.99-1.68c-1.69,0.71-2.33,3.29-3.72,3.68
					c-2.88,0.8-3.34-1.74-5.26-2.27c-1.23-0.34-4.85-0.6-5.99-0.1c-3.2,1.42-0.92,1.39-2.45,4.22c-2.05,3.8-5.2,5.41-9.72,5.16
					c-4.97-0.28-7.16-4.79-11.72-5.52c-4.16-0.66-6.03,2.89-3.75,6.93c1.6,2.82,9.49,7,1.43,7.5c-3.81,0.24-8.7-4.54-12.65-2.38
					c-2.89,1.59-2.3,6.47-5.13,8.94c-3.06,2.67-6.69,1.74-9.86,3.26c-3.64,1.74-4.27,5.25-9.34,3.89c-3.92-1.06-8.14-5.02-11.8-7.02
					c-16.05-8.73-30.66-24.47-37.47-41.51c-3.78-9.47-10.52-17.05-13.91-26.57c-1.64-4.6-3.17-8.84-3.64-13.62
					c-0.19-1.94,0.31-4.22-0.08-6.12c-0.42-2.02-2.05-2.6-1.89-4.99c0.44,4.03,3.68,6.68,6.2,9.59c4.47,5.15,2.43,6.54,3.23,12.23
					c1.65,0.44,3.08,0.01,4.17-1.29c3.96,1.98,5.48,8.01,7.84,11.52c1.11-5.04-5.09-10.81-0.8-14.38
					c-3.75-3.61-5.12-5.89-3.32-11.27c1.31-3.93,3.3-8.18,7.48-9.25c4.53-1.16,12.26,2.14,14.42,6.45c2.54,5.07-2.35,7.52-5.59,9.83
					c4.29,3.49,4.95,5.14,3,10.44c-0.46,1.24-1.99,2.96-1.88,4.22c0.31,3.73,0.62,1.3,3.07,2.6c3.27,1.75,4.91,1.46,4.34,7.14
					c-0.28,2.8-2.98,8.94,1.85,8.91c8-0.05-2.87-16.39-3.28-19.69c-1.08-8.75-3.91-14.54,3.18-21.22c4.77-4.49,9.89-4.85,15.98-2.67
					c2.45,0.88,6.93,3.06,8.8,4.78c3.66,3.37,2.47,5.7,1.59,9.67c6.76,1.88,3.25-6.32,5.41-8.51c1.21-1.22,4.86-0.29,5.87,0.49
					c2.29,1.79,0.5,3.59,1.83,5.3c2.48,3.19,8.65,2.55,11.51,5.72c2.27,2.51,2.34,7.38,3,10.6c3.34,0.29,1.93-5.89,5.07-7.78
					c3.53-2.13,8.47,1.72,11.73-0.46c5.55-3.71-3.18-13.8-6.92-16.2c-6.39-4.1-14.39-3.43-21.18-6.54c-3.36-1.54-5.4-3.95-8.41-5.99
					c-3.35-2.28-7.2-3.27-10.42-5.99c-2.61-2.2-4.35-6.05-7.41-7.98c-3.36-2.11-7.42-1.98-10.74-4.32
					c-5.2-3.66-11.78-12.88-13.6-18.73c-1.64-5.27-1-18.62,2.26-22.06c2.51-2.65,5.92-3.38,8.18-6.55c2.2-3.09,2.76-7.37,6.09-9.74
					c4.43-3.15,3.31-0.17,6.33,2.8c2.88,2.83,4.99,2.45,9.02,1.3c3.35-0.96,7.57-2.56,10.26-4.82c2.92-2.45,4.61-5.3,8.42-6.92
					c6.67-2.83,14.78-4.4,19.2-11.23c5.09-7.86-2.11-12.11-5.98-17.92c-1.98-2.97-1.31-5.5-5.23-6.83
					c-3.32-1.13-7.64,0.19-10.42,1.2c-3.25,1.17-5.46,2.81-9.26,2.45c-5.06-0.48-2.84-3.5-6.76-4.82c0.72-0.4,1.28-0.3,2.08-0.34"/>
				<path class="st3" d="M42.77,298.23c1.66,2.1,3.75,3.76,5.28,5.97c1.72,2.49,1.19,5.28,5.02,5.31c5.51,0.03,5.08-7.55,5.69-11.19
					c0.51-0.18,0.72-0.3,1.16-0.57c-6.98,0.01-10.68-5.11-13.09-11.07c5.93-5.55,6.48-1.1,14.01,0.02c8.1,1.2,11.04-7.65,18.37-6.68
					c0.74,4.56-3.96,14.77-8.61,16.24c-3.69,1.16-5-1.97-8.42-2.73c-2.28-0.5-7.14,2.08-7.98-2.54c-0.84-4.6,9.41-10.36,11.1-14.64
					c3.55-8.95-6.2-14.8-7.08-23.13c-0.6-5.69-1.81-9.45-3.63-14.91c-1.04-3.12-0.52-11.73-5.27-11.84
					c-6.96-0.16-2.25,12.31-1.97,15.16c0.15,1.53,0.69,4.47-0.82,5.51c-2.29,1.58-3.31-1.52-5.18-0.99c-1.87,0.53-4.89,4.9-5.03,6.7
					c-0.34,4.36,1.93,2.18,3.66,4.59c2.25,3.13-0.71,9.76-0.5,14.06c0.11,2.24-0.33,5.9-0.01,7.97c0.55,3.58,2.52,3.32,4.35,5.99
					c1.55,2.26,3.65,10.9-0.11,12.29"/>
				<path class="st3" d="M105.48,413.09c2.88-1.31,6.24-3.3,9.35-4.57c3.9-1.6,7.16-0.3,11.24-0.09
					c10.39,0.52,21.07-4.32,30.47-8.37c5.45-2.35,21.56-8.83,23.38-0.09c0.53,2.57-1.69,9.83-3.3,11.74
					c-1.14,1.36-2.76,0.29-3.86,1.74c-1.54,2.04-1.07,3.24-1.28,5.74c-0.67,8.06-3.12,17.57-9.38,22.84
					c-5.43,4.57-14.6,5.98-20.59,1.08c-3.44-2.82-6.02-7.89-10.27-9.74c-3.96-1.72-6.54-1.06-10.28-3.76
					c-4.47-3.22-6.1-5.27-8.32-9.96c-1.45-3.07-2.9-6.12-5.74-7.97"/>
				<path class="st3" d="M207.98,390.12c-5.96-0.02-15.94-5.18-20.02,1.5c-1.57,2.56-2.9,8.17-3.86,11.17
					c-1.67,5.24,1.23,5.79,4.12,9.01c4.68,5.23-0.68,14.14-1.32,20.98c-0.53,5.6,2.27,3.91,4.7,8c1.9,3.19,0.29,7.45,1.52,10.74
					c1.33,3.55,4.37,10.3,7.84,6.06c4.41,3.27,5.26,6.47,10.83,7.52c5.62,1.07,11.25,0.19,16.85,0.94
					c5.72,0.76,8.03,2.74,12.44-1.03c3.37-2.88,5.34-6.61,7.97-10.09c4.74-6.29,13.44-10.21,16.51-0.48c1.67,5.29-0.76,7.6,6.07,7.3
					c3.95-0.17,7.15-2.13,10.83-2.15c5.45-0.03,8.4,3.65,12.22-0.56c1.15-1.27,1.29-3.68,2.34-5.16c1.43-2.01,3.59-2.41,5.06-4.1
					c3.13-3.6,0.1-6.83,1.81-10.9c1.44-3.4,6.1-7.74,8.46-10.79c2.38-3.08,5.9-5,5.63-9.38c-0.21-3.32-3.29-7.76-5.27-10.42
					c-2.71-3.64-5.97-6.67-7.38-11.13c-1.27-4-1.24-8.86-4.33-12.19c-2.95-3.18-5.92-1.98-9.72-3.64c-3.23-1.4-5.56-5.68-9.82-4.28
					c-5.14,1.69-3.78,5.81-10.3,5.56c-4.84-0.19-7.2-1.83-11.72-3.28c-3.76-1.21-7.98-0.94-12.17-0.94c-4.36,0-7.52-0.85-11.57-1.52
					c-5.63-0.94-5.42,2.07-9.37,5.27c-2.79,2.25-5.91,2.57-9.45,3.28c-4.07,0.81-8.1,1.39-8.41,6.41c-0.24-0.4-0.31-0.84-0.48-1.25"
					/>
				<path class="st3" d="M327.8,398.56c-1.31-0.26-2.65-0.06-3.68,0.58c3.21,4.06,1.03,6.17,1.35,10.21
					c0.25,3.24,3.17,9.08,5.71,11.14c3.12,2.53,7.92,1.57,11.27,3.74c3.42,2.22,4.32,8.29,7.96,3.88
					c3.66-4.44-1.75-18.09-6.19-20.76c-1.71-1.03-3.69-0.1-5.54-1.4c-1.93-1.36-1.75-3.85-3.37-5.17c-3.02-2.46-7.29-1.22-7.5,2.47"
					/>
			</g>
			<g>
				<path class="st4" d="M75.53,241.98c2.56-1.64,5.78-1.32,8.08-3.17c2.39-1.92,3.13-5.74,5.02-8.1c2.9-3.61,9.42-9.56,14.51-7.96
					c5.25,1.65,4.07,10.83,5.51,15.58c1.16,3.82,1.56,6.46,5.25,7.86c3.15,1.2,5.41-0.33,7.93,2.77c1.42-0.95,2.6-2.82,4.23-3.64
					c2.45,3.14,5.69,6.49,5.69,10.65c0.69,0.15,1.51,0.15,2.2,0c0.17-3.37-0.24-6.42-0.42-9.63c2.75,6.57,0.52,10.86,8.45,12.14
					c2.67,0.43,4.26,1.72,6.68-0.43c1.84-1.64,0.56-4.52,3.55-4.74c-0.23,2.58,0.55,4.84,0.62,7.37c3.33-1.47,13.79-8.91,14.89-3.69
					c0.57,2.67-1.96,5.79-2.34,8.44c-0.44,3.13,0.71,6.86-0.83,9.34c0.65-7.08-4.41-2.68-6.31,0.51c-2.42,4.07-2.84,7.88-2.62,12.6
					c3.06-0.4,3.61-5.57,6.12-7.34c3.29-2.32,4.46-1.06,7.03-5.26c0.97-1.58,2.54-8.05,3.64-8c2,0.09,2.01,7.4,1.96,8.89
					c5.73-3.28,8.39-11.7,16.68-10.19c-0.78,6.51,0.31,15.55-1.67,21.6c-0.9,2.74-3.83,7.84,2.78,6.47c3.3-0.69,4.06-4.77,5.63-7.46
					c1.7,1.45,4.61,3.56,5.03,5.18c0-1.61,0.51-4.18,0.01-5.69c-0.73-2.23-3.29-3.53-3.65-6.09c-0.7-4.96,4.24-8.4,6.47-2.84
					c0.64,1.59-0.79,4.94,0.98,6.05c2.33,1.45,3.79-1.35,5.51-1.71c2.24-0.47,5.56-0.41,7.62,0.51c3,1.32,1.95,2.02,4.09,4.2
					c3.42,3.5,6.11,2.75,10.32,3.62c5.62,1.16,6.83,6.83,9.37,11.29c4.34,7.61,5.43,12.21-4.69,14.97
					c-5.56,1.52-10.58,1.89-16.39,1.89c-6.34,0-10.94,0.76-16.84,2.25c-7.98,2.01-15.15-3.58-23.4-2.35
					c-3.41,0.51-8.42,0.69-9.84,3.83c-2.08,4.6,2.19,7.89-4.67,5.65c-7.42-2.42-9.21-10.66-16.38-13.49
					c-5.92-2.34-12.25-6.67-17.42-10.29c-5.98-4.18-12.3-5.48-18.75-8.93c-3.26-1.75-6.2-3.02-8.31-5.74
					c-2.74-3.53-2.33-4.43-7.48-5.25c-9.2-1.47-13.26-9.26-17.68-16.77c-2.7-4.58-2.94-9.36-3.85-14.54
					c-0.9-5.16-3.32-8.48,0.47-13.13"/>
				<path class="st4" d="M271.17,227.91c3.18,7.82,2.99,18.37,1.77,26.72c-0.85,5.78-1.41,15.01-5.41,19.71
					c-4.97,5.85-14.39,6.11-21.28,7.46c-6.21,1.22-14.54,2-19.84-1.98c5.11-2.97,11.02-3.13,16.21-6.58
					c4.63-3.07,4.84-5.91,7.14-10.67c2.09-4.33,3.21-6.44,1.64-11.24c-1.69-5.16-6.26-11.21-5.45-16.84
					c5.06,1.98,7.51,7.51,12.12,10.41c4.11,2.58,4.62,2.86,7.02-1.09c1.81-2.98,4.37-16.65,7.49-12.17"/>
				<path class="st4" d="M68.98,166.03c0.69,1.97,1.04,4.3,1.02,6.5c3.47-0.89,6.33-3.67,10.15-4.11c0.26,0.2,0.03,0.98,0.14,1.29
					c0.43,0.01,1.35-0.09,1.73,0.14c-0.18,1.85-1.6,3.35-2.21,5c1.4-0.37,2.9-0.61,4.07-1.74c-0.98,3.56-5.99,3.44-7.41,6.51
					c-1.39,3.01,0.96,7.53,0.37,10.75c-1.54-2.59-1.98-5.89-3.17-8.4c-2.69-5.67-1.3-0.97-5.14-0.56
					c-4.83,0.51-2.53-13.62,0.93-15.38"/>
				<path class="st4" d="M129.35,129.93c1.78,4.36,0,10.56-0.4,14.93c3.85,0.17,3.5-1.39,6.02,1.45c0.62,0.71,1.26,2.02,1.89,2.82
					c-0.11-0.14,2.73,3.12,2.34,2.34c2.08,4.2-1.57,12.03-4.72,15.56c-1.25-2.01-1.62-4.97-4.2-5.68c-3.22-0.88-3.77,1.89-6.07,3.79
					c-3.49-3.5-4.11,1.86-5.97,3.8c-4.26,4.43-4.91-0.74-7.17-0.13c-1.31,0.35-3.84,5.81-5.11,7.17c-2.53,2.71-4.98,5.71-7.43,8.18
					c-0.79-6.45,5.54-10.82,6.42-16.17c-3.89-0.11-4.17-3.78-2.75-5.71c1.22-1.65,5.77-3.32,7.49-4.79
					c5.34-4.59,2.16-13.28,7.48-18.24c3.6,2.46,2.69,6.39,2.89,10.31c3.47-0.98,6.82-4.1,7.78-7.54c0.79-2.85-1.84-10.62,2.37-10.61
					c0.11,0.43-0.06,0.93,0.07,1.33"/>
				<path class="st4" d="M123.27,108.36c0.61,3.41,0.82,6.09,4.57,3.34c0.59,3.01,2.27,1,3.39,2.27c1.17,1.34,1.4,2.16,1.85,4.23
					c0.62,2.83,0.48,7.08,2.92,8.8c5.47,3.85,15.94,1.06,22.31,2.52c0.07,1.77,0.04,3.59,0.09,5.38c-3.48-1.78-8.39-1.61-12.31-3.22
					c-4.5-1.85-10.01-3.15-13.96-5.52c-3.36-2.01-4.34-5.95-6.52-8.54c-1.83-2.17-2.88,0.07-3.29-3.64
					c-0.18-1.61,0.97-3.19,1.4-4.69"/>
				<path class="st4" d="M150.88,91.49c-1.1,4.01-3.92,7.68-6.06,11.18c3.2,0.33,6.11-2.32,8.31,0.55c1.77,2.31-0.41,4.86-0.83,7.04
					c-0.94,4.86,0.85,9.14,0.52,14c4.38-1.21,6.52-10.28,6.55-14.43c3.25,0.17,5.2,5.79,7.77,7.88c2.56,2.09,4.62,2.4,7.51,3.73
					c1.7-6.91,0.35-8.06-6.02-10.28c-5.34-1.86-3.7-1.94-3.36-6.76c0.36-5.1-9.73-17.69-14.87-11.51"/>
				<path class="st4" d="M320.78,452.01c4.57-4.31,3.42-6.94,10.3-8.92c4.68-1.35,10.45-3.8,15.37-3.2
					c1.52,5.15-9.63,4.3-12.67,6.39c-2.01,1.38-3.36,4.5-5.16,5.61c-2.24,1.38-5.53-0.48-7.37,1.52"/>
				<path class="st4" d="M46.51,306.67c1.53,3.42,4.19,6.64,5.62,9.82c1.64,3.66,1.38,6.61,1.01,10.74
					c3.89-0.58,4.47-4.02,8.24-1.33c1.41,1.01,3.91,5.13,4.69,6.53c0.47-3.4-1.76-6.39-1.01-10.2c-2.7-3.49-3.59-11.25-0.28-15.08
					c3.09-3.58,11.13-5.49,14.18-0.93c2.5,3.75,0.09,11.21,0.92,15.36c0.93,4.69,1.05,8.28,0.42,13.16
					c9.89-1.32,4.23,14.66,9.15,16.98c7.1,3.35-0.39-20.03-1.16-22.47c-1.19-3.81-2.28-7.12-2.89-10.85
					c-0.37-2.28-2.87-9.77-1.93-11.73c2.5-5.2,5.71,2.1,8.48,1.91c1.59-0.11,2.87-2.52,4.29-3.19c2.71-1.27,3.89-0.82,6.79-0.56
					c4.96,0.44,12.15,2.07,14.54,7.11c1.69,3.55-3.63,11.72,1.99,12.02c2.19-4.39-0.19-11.04,6.45-12.54
					c1.13,2.4,3.12,7.14,5.57,8.51c3.66,2.05,8.3,0.24,12.4,3.26c8.72,6.42-2.58,12.69-5.84,19.49c-2.1,4.39,0.38,5.67,3.98,2.1
					c3.27-3.25,2.18-5.61,6.41-6.11c2.82-0.33,2.67,1.27,5.54-0.59c1.54-1,2.65-3.43,4.34-4.59c3.7-2.55,5.73-1.82,7.48,2.24
					c3.19,7.44-1.27,19.38,2.8,25.86c2.56-4.14-1.06-13.45,3.63-16.43c4.6,6.91,1.38,13.16,11.35,6.54
					c1.93-1.28,7.04-4.44,9.85-2.87c2.41,1.35,3.66,9.45,3.79,12.15c8.07-0.87,5.61-14.36,11.09-16.18
					c-0.1,1.63,0.05,3.38,0.62,4.93c6.49,1.16,2.43-10.66,6.94-10.62c5.57,0.05,3.56,8.47,0.15,10.12
					c4.39,0.29,11.95,0.39,10.69,7.04c3.11,1.78,6.38,1.02,5.91,6.08c0.09-1.01-2.58,4.6-1.74,3.87c-1.42,1.24-3.09,1.72-5.1,1.31
					c-1.01-5.02-17.4-8.71-17.4-4.15c0,3.21,7.44,4.19,0.93,6.59c-3.53,1.3-6.86-0.38-10.29,1.96c-4.14,2.81-3.89,4.2-9.39,2.83
					c-3.53-0.88-6.77-2.62-10.64-0.96c-6.91,2.97-7.52,13.28-16.95,10.12c-3.95-1.32-6.41-4.1-10.76-4.6
					c-5.17-0.59-7.47,1.64-3.86,6.22c2.1,2.66,6.72,4.23,1.06,6.45c-3.55,1.4-7.7-1.23-11.13,1.02c-2.94,1.93-4.41,4.92-8.05,6.59
					c-3.59,1.65-6.32,1.3-9.73,2.34c-6.92,2.12-13.89,4.65-21.29,2.34c-10.08-3.14-14.08-12.39-20.02-19.91
					c-6.57-8.32-12.36-18.33-16.75-28.01c-2.49-5.51-5.65-10.08-7.7-15.85c-1.34-3.78-2.24-7.26-3.28-11.36
					c-1.81-7.11-6.65-15.87-5.04-23.42c0.15-0.69-0.01-1.54-0.02-2.24c1.37,2.09,0.41,5.01,1.52,6.81c1.36,2.2,3.69,1.23,4.12,3.84"
					/>
				<path class="st4" d="M252.45,294.48c-0.7-0.63-1.53-1.07-2.34-1.45c-0.36,0.3-0.98,0.64-1.29,0.91
					c-0.14-0.82-1.03-1.7-1.13-2.66c-0.6-0.05-1.12-0.04-1.71,0c-2.22,3.95,2.68,5.9,4.49,8.84c1.95,3.16,1.85,6.18,5.85,8.31
					c6.24,3.32,16.08,6.83,23.27,7.99c7.85,1.26,16.92,0.82,24.29-2.22c4.87-2.01,6.36-4.6,8.03-9.38c1.12-3.19,3.69-7.77,0.08-9.53
					c-5.2-2.53-7.33,7.34-14.06,6.14c-1.5-4.55-3.14-4.45-7.66-4.61c-6.76-0.23-4.19-2.04-7.38-5.64c0.46,0.52-4.14-2.07-3.76-1.86
					c-1.83-0.96,0.07-2.72-3.15-1.76c-4.26,1.27-2.24,5.74-8,4.97c-1.05-7.82-15.87-0.78-8.11,7.95c-3.75,3.58-5.96-2.31-5.62-5.46
					c-1.64-0.04-4.54-0.88-5.08-1.01"/>
				<path class="st4" d="M256.66,327.3c-4.27,0.96-12.58,0.81-12.56,6.96c4.42,0.37,8.9-2.49,13.8-2.19
					c-1.21,1.2-2.59,2.61-3.4,4.17c1.55-0.41,2.91-0.69,4.43-0.9c-0.16,0.68-0.09,1.48-0.34,2.21c0.53-0.24,1.24-0.28,1.85-0.7
					c-0.03,0.53-0.16,1.12,0.03,1.63c2.2,0.04,4.36-0.51,6.42-0.81c-0.96,7.42,23.01-4.33,26.19-5.17c0.12,0.44,0.08,0.84,0.16,1.29
					c2.07,0.29,4.37,0.03,6.34-0.34c-1.2,1.12-1.09,2.43-1.65,3.62c6.24,0.75,24.65-8.13,26.91-14.96c-1.65-0.1-3.2,0.4-4.43,1.39
					c0.65-4.02,5.13-7.03,7.46-10.25c-0.84-0.26-1.28-1.14-2.79-1.02c1.65-8.5-9.04,0.93-10.47,1.95c-1.85,1.31-4.17,1.89-6.47,2.38
					c-2.61,0.55-3.77,0.78-6.64,2.2c-8.91,4.41-19.48,9.86-29.77,9.41c-0.11-0.44-0.02-0.83-0.14-1.27
					c-3.39,0.37-9.05-0.9-12.03,0.35c-0.41-3.86-5.21-0.86-7.09-0.42"/>
				<path class="st4" d="M247.3,368.09c-0.23,0.5,0.56,1.21-0.89,0.88c1.14-3.76-2.67-20.89,5.96-18.61
					c0.06,0.82,0.59,1.31,0.62,2.19c1.87,0.11,3.78-0.84,5.46-1.27c1.07,2.39,4.44,1.3,6.54,0.47c1.8,2.3,5.75,1.27,8.45,1.41
					c-0.56,2.85,0.6,2.5,2.41,3.21c1.28,0.51,5.45,1.27,6.55,1.44c4.32,0.65,7.56-0.44,10.75-2.95c3.08-2.42,5.34-4.8,9.26-6.46
					c5.13-2.18,4.06,0.18,9.01,1.41c3.86,0.96,5.19-0.82,9.01,2.23c4.17,3.32,5.71,5.62,11.01,6.78c3.69,0.81,6.08,2.04,8.18,5.52
					c1.52,2.53,4.65,7.68,4.59,10.78c-0.08,3.87-4.43,7.53-7.98,8.45c-4.91,1.27-6.99-1.55-9.82-4.59
					c-6.34-6.82-12.72-11.01-22.48-10.06c-3.88,0.37-4.38,2.88-8.89,3.4c-2.95,0.34-8.59,1.19-10.4,0.58
					c-3.24-1.09-5.35-4.96-8.79-6.1c-3.21-1.06-8.26-1.56-11.71-1.05c-6.08,0.89-10.1,0.35-16.3-0.06c-0.52-1.39,0.26-0.9,0.86-1.34
					"/>
				<path class="st4" d="M331.55,318.39c-1.42,1.29-4.61,3.16-5.63,5.18c-1.99,3.94-0.07,0.74,1.88,3.27
					c1.93,2.51,1.63,0.44,0.09,4.23c-0.65,1.61-1.98,2.86-2.39,4.57c1.06-0.22,2.55,0.38,3.63,0.17
					c-1.01,4.75,11.16,3.05,13.21,2.79c6.7-0.85,11.02-4.09,17.05-6.1c4.13-1.38,25.99,7.14,24.49,13c-5.3,3.35-7.34-1.6-11.62-2.32
					c-4.81-0.81-11.43,6.57-11.3-2.71c-1.96,0.82-2.32,0.1-3.72-0.52c7.34-6.94-6.55-7.54-6.91-5.7c0.25-1.3-0.18-2.84,0.34-4.08
					c-1.86-0.16-3.83-0.2-5.48,0.35c0.47-3.67,5.6-2.45,7.79-1.43c0.48-0.63,0.91-1.98,0.96-2.65c-5.19-0.9-7.84-7.4-13.89-8.13
					c-0.43-1.29-0.91-1.18-1.4-1.74c-0.52,1.89-0.92,3.84,0.2,5.52c-2.76-2.76-0.62-6.81-4.41-8.82c-0.58,3.31,1.02,8.58,3.72,10.29
					c-1.07,0.92-2.61,1.24-4.2,0.85c0.19-2.45,0.39-5.32-2.88-4.62"/>
				<path class="st4" d="M356.35,352.15c-0.89-3.92-12.53,6.02-13.06,9.28c2.53,0.47,4.38-1.2,6.91-0.77
					c-0.57,1.08-0.85,3-1.27,4.08c3.09,0.37,1.62,4.25,0.93,6.08c5.39,0.59,3.61-7.97,10.66-6.88c0.35,5.42,20.91-5.81,24.31-5.16
					c0.12,0.44,0,0.83,0.14,1.27c1.64,0.18,3.24-0.12,4.52-0.81c0.08,0.78,0.57,1.43,0.64,2.21c2.2-0.42,4.76-1.08,4.67,1.87
					c3.08-0.33,8.06-1.78,11-2.68c-1.17,1.32-2.32,2.55-3.08,4.09c0.27,0.26,0.95,0.03,1.3,0.14c-0.05,0.52-0.07,1.71,0.14,2.2
					c3.72,0.55,6.68-2.95,9.66-4.57c-0.12,0.79,0.28,1.89,0.16,2.69c2.61-0.26,6.68-1.95,6.55-5.01c2.48,1.51,5.54-0.35,6.53-3.33
					c1.14-3.45-0.75-4.95,2.76-7.99c2.41-2.08,12.76-11.1,8.56-15.61c-1.98-2.13-8.03-0.25-9.38,1.07
					c-2.37,2.33-2.41,6.33-4.33,8.91c-3.16,4.24-9.32,8.28-13.48,11.67c-0.73-4.13-5.55,0.91-8.05,1.01
					c-2.3,0.08-7.49-1.66-7.09-4.64c-1.3,0.23-2.84-0.17-4.06,0.33c-0.23-0.47-0.4-0.81-0.67-1.26c-3.76,4.62-4.05,2.17-8.3,1.69
					c-4.21-0.48-5.59,3.69-9.77,3.33c0.04-1.52-1.86-4.91-3.8-4.68c-2.81,0.34-1.82,6.07-5.56,2.91c0.2,0.97,0.01,2.26,0.33,3.18
					c-1.9-0.94-6.03-3.45-6.95-4.16"/>
				<path class="st4" d="M184.43,196.81c1.55,4.42,0.11,10.77-3.14,13.95c0.04-0.91,0.03-1.51,0.35-2.29
					c-0.07,2.11-0.73,5.49-1.65,7.4c-0.7,1.44-2.49,2.22-2.06,4.01c2.13-0.27,3.66-4.04,4.88-5.82c0.16,2.35-0.52,4.81-0.2,7.08
					c1.38-0.47,1.5-2.12,3.03-2.68c-0.19,1.14,0.23,1.76,0.73,2.66c0.45-0.41,1.4-0.67,1.76-1.19c0.33,4.97-0.66,10.5,2.18,14.93
					c0.92,1.44,2.47,2.17,3.2,4.13c0.61,1.64,0.33,3.45,1.24,4.73c0.87-0.92,1.73-2.15,2.8-2.82c1.62,3.31,2.91,2.21,5.63,3.09
					c2.3,0.74,3.05,2.91,5.91,2.74c1.14-0.07,2.07-1.11,3.16-1.19c1.85-0.14,2.57,1.09,4,1.27c2.51,0.32,4.03-0.29,4.03-3.1
					c-4.78,3.97-12.91-2.86-17.75-5.73c-4.14-2.45-7.27-8.46-8.48-13.06c-0.31-1.16-0.17-2.65-0.54-3.75
					c-0.38-1.13-1.46-1.73-1.82-2.81c-0.96-2.89,0.12-5.97-1.29-8.76c-0.75-1.48-1.47-1.36-1.89-3.13c-0.3-1.29,0.24-2.76-0.07-4.06
					c-0.15-0.64-2.5-6.47-3.45-6.21c-0.05,0-0.11-0.01-0.17-0.01c-0.13,2.06,0.48,4.65-1,6.22"/>
				<path class="st4" d="M198.16,191.19c3.66,4.06,2.91,10.64,3.74,15.57c0.86,5.13,2.84,5.49,7.45,4.49
					c0.02,0.99-0.07,3.76,1.05,4.26c1.97,0.89,2.95-2.35,4.62-2.44c2.32-0.13,1.64,1.85,3.19,2.76c1.32,0.77,3.38,0.35,4.87,0.42
					c0.91,2.82,0.47,5.06-1.74,6.51c-2.29,1.51-4.17,0.77-4.09,4.33c2.03,0.31,5.66-0.35,7.44-1.27c2.11-1.09,3.3-3.07,5.87-3.95
					c0.21,1.96-4.75,6.2,0.68,5.58c2.62-0.3,6.72-5,7.73-7.51c1.51-3.75-0.97-4.16-2.75-6.94c-1.89-2.95-0.36-4.47-0.66-7.7
					c-2.82,0.09-2.27,5.75-5.95,5.27c-3.55-0.46-1-3.9-2.72-5.69c-1.28,0.99-5.52,12.41-5.94,3.73c-0.07-1.44,1.2-4.69-0.3-5.57
					c-1.49-0.88-3.63,1.34-4.63,1.85c-0.24-0.51-0.96-3.1-1.39-3.33c-2.04-1.1-1.26,0.86-2.5,1.83c-3.82,2.99-0.72-1.36-1.48-4.08
					c-0.78-2.8-3.83-1.83-5.84-3.2c-1.12-0.77-0.97-2.61-2.58-2.43c-1.34,0.15-1.75,2.73-1.92,3.97c-0.23-0.14-0.42-0.31-0.58-0.53"
					/>
				<path class="st4" d="M185.36,174.62c1.22,2.39-1.76,3.41-1.21,5.9c1.13-0.13,2.29-1.68,3.35-1.63c1.96,0.09,0.47,0.26,1.28,1.59
					c0.76,1.25,0.5,3.85,2.19,4.47c1.88,0.69,7.6-3.04,8.76-4.48c0.83-1.03,2.12-2.49,0.85-3.9c-1.59-1.76-3,0.39-4.6,0.16
					c-2.82-0.41-4.38-4.8-7.75-4.88c-0.07,1.23-0.75,1.58-1.3,2.14"/>
				<path class="st4" d="M310.48,429.97c3.77-11.24-0.97-12.95-10.06-18.05c-9.8-5.49-15.92-6.99-17.23,6.66
					c-8.63,1.37-22.46-1.4-30.82-3.52c-0.07,2.26-1.46,5.48-1.01,8.2c-6.42,0.19-10.69-5.64-17.48-4.38
					c-1.61,13.14-10.93,0.93-16.08-2.06c-5.33-3.1-16.56-7.03-23.26-6.45c-0.22,3.64-0.06,7.39-0.28,11.02
					c-14.88-1.95-3.4,34.24,1.08,39.29c11.19,12.61,30.03,12.05,42.8,3.75c6.12-3.98,9.61-11.55,15.28-13.78
					c10.23-4.02,8.92,3.24,13.76,7.68c10.89,9.98,26.58-0.92,33.69-10.59c3.04-4.14,4.69-8.74,7.93-12.84
					c4.05-5.12,8.72-5.93,7.14-14.16c-3.04,0.64-2.66-1.61-3.6-2.02"/>
			</g>
		</g>
		<g>
			<path class="st3" d="M203.48,47.97l-9.7,1.99l-1.72-8.45l28.69-5.87l1.73,8.45l-9.7,1.99l10.34,50.71l-9.28,1.9L203.48,47.97z"/>
			<path class="st3" d="M237.06,34.47l12.82-0.38l11.58,60.07l-9.47,0.28l-2.07-11.93l0,0.17l-10.76,0.32l-1.37,11.86l-8.78,0.26
				L237.06,34.47z M243.96,20.28l10.33-0.3l-8.92,10.19l-7.14,0.21L243.96,20.28z M248.56,74.52l-5.09-29.71l-0.17,0.01l-3.26,29.95
				L248.56,74.52z"/>
			<path class="st3" d="M266.2,91.97c-1.94-2.98-2.51-6.88-1.7-11.7l7.62-45.43l9.34,1.57l-7.74,46.11
				c-0.34,2.04-0.18,3.59,0.49,4.63c0.67,1.05,1.77,1.7,3.29,1.96c1.53,0.26,2.78,0,3.76-0.77c0.97-0.77,1.63-2.17,1.97-4.22
				l7.74-46.11l9,1.52l-7.62,45.43c-0.81,4.82-2.62,8.32-5.43,10.5c-2.81,2.18-6.48,2.89-11.01,2.13
				C271.38,96.83,268.15,94.96,266.2,91.97z"/>
			<path class="st3" d="M314.35,43.41l11.08,4.31l-4.46,37.03l0.16,0.06l13.06-33.69l7.87,3.06l-21.81,56.29l-9.07-3.53l5.32-45.21
				l-0.16-0.06l-15.92,41.09l-7.87-3.06L314.35,43.41z"/>
			<path class="st3" d="M341.63,120.18c-0.24-3.55,1.18-7.23,4.25-11.04l28.89-35.84l7.37,5.96l-29.32,36.38
				c-1.3,1.61-1.91,3.04-1.84,4.28c0.07,1.24,0.71,2.35,1.92,3.32c1.2,0.97,2.42,1.37,3.65,1.17c1.22-0.19,2.49-1.09,3.78-2.7
				l29.32-36.38l7.1,5.74l-28.89,35.84c-3.07,3.8-6.36,5.96-9.88,6.48c-3.52,0.52-7.06-0.67-10.63-3.56
				C343.77,126.96,341.86,123.74,341.63,120.18z"/>
			<path class="st3" d="M364.87,140.15c0.48-3.49,2.59-6.81,6.31-9.96l2.63-2.23l5.77,6.86l-3.16,2.67
				c-2.99,2.52-3.42,5.03-1.31,7.54c1.03,1.23,2.18,1.86,3.44,1.89s2.7-0.65,4.33-2.02c1.93-1.63,3.26-3.51,3.99-5.63
				c0.73-2.12,1.13-5.24,1.2-9.36c0.12-5.22,0.74-9.31,1.87-12.3c1.13-2.98,3.03-5.61,5.71-7.87c3.65-3.08,7.24-4.53,10.79-4.37
				c3.55,0.16,6.8,2,9.77,5.52c2.92,3.47,4.14,6.94,3.64,10.41c-0.5,3.47-2.61,6.78-6.34,9.93l-1.91,1.61l-5.77-6.86l2.37-2
				c1.58-1.34,2.47-2.62,2.68-3.84c0.2-1.23-0.19-2.43-1.19-3.62c-2.04-2.42-4.53-2.38-7.47,0.1c-1.67,1.41-2.85,3.17-3.54,5.3
				c-0.69,2.12-1.07,5.24-1.13,9.36c-0.08,5.26-0.72,9.37-1.91,12.33s-3.23,5.66-6.13,8.11c-3.77,3.19-7.46,4.7-11.05,4.54
				c-3.59-0.16-6.89-2.03-9.88-5.59C365.63,147.14,364.39,143.64,364.87,140.15z"/>
			<path class="st3" d="M432.37,133.43l4.59,8.3l-21.48,11.9l4.92,8.91l21.48-11.9l4.59,8.3l-52.75,29.23l-4.59-8.3l23.74-13.15
				l-4.92-8.91l-23.74,13.15l-4.59-8.3L432.37,133.43z"/>
			<path class="st3" d="M398.74,193.23c1.77-3.09,4.99-5.36,9.65-6.82l43.89-13.75l2.83,9.06l-44.55,13.96
				c-1.97,0.62-3.27,1.46-3.9,2.53c-0.63,1.07-0.71,2.35-0.25,3.83c0.46,1.48,1.26,2.48,2.38,3c1.12,0.52,2.67,0.47,4.65-0.14
				l44.55-13.96l2.72,8.73l-43.89,13.75c-4.66,1.46-8.59,1.43-11.81-0.1c-3.21-1.52-5.51-4.48-6.88-8.87
				C396.77,200.06,396.97,196.32,398.74,193.23z"/>
			<path class="st3" d="M464.44,221.45l1.35,12.78l-58.91,16.14l-1-9.43l11.72-2.98l-0.17,0.02l-1.13-10.72l-11.91-0.47l-0.93-8.75
				L464.44,221.45z M425.45,236l29.19-7.35l-0.02-0.17l-30.07-0.97L425.45,236z"/>
			<path class="st3" d="M466.29,257.35l-0.48,9.48l-60.21-3.06l0.48-9.48L466.29,257.35z"/>
			<path class="st3" d="M462.98,289.65l-2.65,12.58l-61.01-2.85l1.96-9.28l12.07,0.79l-0.17-0.03l2.22-10.55l-11.19-4.13l1.82-8.61
				L462.98,289.65z M421.41,291.44l30.03,2.03l0.04-0.17l-28.3-10.22L421.41,291.44z"/>
		</g>
	</g>
</g>
</svg>
