<?xml version="1.0" encoding="utf-8"?>
<!-- Generator: Adobe Illustrator 24.2.1, SVG Export Plug-In . SVG Version: 6.00 Build 0)  -->
<svg version="1.1" id="Capa_1" xmlns="http://www.w3.org/2000/svg" xmlns:xlink="http://www.w3.org/1999/xlink" x="0px" y="0px"
	 viewBox="0 0 467.75 490" style="enable-background:new 0 0 467.75 490;" xml:space="preserve">
<style type="text/css">
	.st0{fill:#243746;}
	.st1{fill:#131E29;}
	.st2{fill:#243746;stroke:#243746;stroke-width:0.2363;stroke-miterlimit:10;}
	.st3{fill:#FFFFFF;}
	.st4{fill:#EBEBEC;}
</style>
<g>
	<g>
		<g>
			<path class="st3" d="M328.9,293.72c-2.65,0.3-4.39,2.57-4.39,2.57c2.36,1.29,6.91,2.34,9.47,3.16
				c0.35-8.63,0.93-15.23,1.27-23.86c0.07-1.77,1.11-7.68,1.62-9.38l1.32-1.02l2.03-6.81c2.4,0.15,4.84,0.3,7.17-0.3
				c2.33-0.6,4.56-2.1,5.44-4.36c0.69-1.75,0.49-3.7,0.29-5.57c-0.68-6.29-1.36-12.57-2.04-18.86c-0.29-2.65-0.61-5.41-2.02-7.67
				c-0.61-0.98-1.48-1.87-2.59-2.16c-2.15-0.54-7.58,1.5-9.8,1.61c0,0,0.07-5.78-3.27-6.36c-1.92-0.33-5.69,0.15-6.78,1.79
				c-1.09,1.64-0.47,8.09,0.57,9.76c0.45,0.73,2.41-0.34,3.62,0.16l0.11,1.8c-5.47,0.71-9.26,18.61-9.24,19.5
				c0.06,2.18,4.09,4.89,4.09,4.89l0.04,2.86l-11.76,13.12c0,0-4.36,17.15-4.65,19.43c0,0-4.33,1.93-4.55,4.12
				c2.67,0.75,6.02,0.51,9-0.05c0.31-5.53,5.7-19.39,5.7-19.39s6.43-5.37,9.14-7.54l0.4,16.51
				C329.13,284.51,328.9,293.72,328.9,293.72z"/>
			<path class="st3" d="M86.47,174.17c-1.5,1.16-3.91,2.07-5.01,3.56c-1.1,1.48-0.1,3.23-1.73,4.99c-1.93,2.06-6.36,3.6-8.91,5.87
				c-3.29,2.93-6.72,5.41-10.31,7.9c-2.08,1.44-5.62,5.94-7.75,6.13c-3.38,0.3-4.16-4.22-7.41-5.38c-4.78-1.7-4.25-0.29-7.75-5.21
				c-1.37-1.93-1.19-2.49-3.06-3.57c-1.66-0.96-4.69-0.35-6.63-1.65c-3.37-2.26-4.35-5.87-4.09-10.11
				c0.5-8.02,2.37-16.83,3.58-24.96c0.36-2.43,1.94-11.49,5.75-9.32c3.33,1.9-1.08,7.27-1.61,9.72c3.18,0.21,6.98-0.78,9.25,1.96
				c0.47-2.76,1.34-5.84,4.36-6.39c0.15,2.7,0.22,5.59-0.36,8.13c8.73,3.44,11.92-5.09,9.58-11.77c-1.64-4.69-9.47-9.11-5.52-14.28
				c-2.7-3.18-6.35-3.36-5.65-8.67c0.5-3.8,3.84-6.3,7.13-8.03c1.66-0.87,8.94-4.22,10.33-3.34c1.39,0.88,2.54,9.57,2.47,11.29
				c1.78,0.13,3.67,0.13,5.45,0c-0.74-5.81,7.26-1,9.9-2.94c2.75-2.03,2.19-7.62,4.57-10.11c5.68-5.94,14.65-5.62,13.21-15.94
				c-0.25-1.82-0.84-4.37-1.77-6.01c-0.71-1.25-3.31-3.17-3.57-4.17c-1.14-4.32,3.41-8.26,6.14-11.26
				c4.18-4.61,13.76-17.29,20.46-17.34c7.49-0.05,1.5,17.34,7.15,22.47c8.24,7.49,15.64,1.1,19.44-7.16
				c1.45-3.14,0.57-10.45,2.54-12.76c2.71-3.19,3.6,6.95,3.97,9.19c1.7,10.41,8.84,10.38,15.79,16.32
				c7.5,6.41,11.58,14.55,14.64,23.97c1.58,4.88,2,9.53,4.83,14.18c2.87,4.71,4.17,6.87,3.87,12.77
				c-8.56,2.35-5.2-19.67-16.74-10.14c-6.69,5.53-9.44,16.84-8.13,25c1.19,7.42,4.45,17.93,13.75,13.65
				c7.6-3.49,14.61-7.01,23.42-3.82c4.3,1.56,4.83,2.57,5.6,7c0.77,4.43,1.84,5.72,4.08,9.56c3.31,5.71,0.06,4.49-0.88,9.42
				c-0.95,4.96,3.23,3.96,5.87,0.96c0.89,8.28,2.07,14.67,9.37,20.22c6.44,4.9,13.88,10.29,21.66,12.49
				c3.82,1.08,6.34-0.94,9.18,2.56c2.53,3.13,1.81,7.93,3.69,11.62c3.6,7.05,13.27,9.68,15.8,17.29c0.63,1.91-0.24,3.34,0.86,5.24
				c1.4,2.41,4.28,2.59,4.8,5.41c2.97,1.47,4.63,4.39,7.55,5.71c3.51,1.59,5.47,0.84,8.66,4.04c4.44,4.47,9.71,5.85,15.3,10.1
				c2.87,2.18,5.13,4.84,7.1,7.78c2.24,3.34,3.43,3.35,6.12,5.74c2.63,2.33,4.16,5.59,6.09,8.53c4.96,7.55,14.13,10.24,21.25,15.93
				c3.67,2.93,6.07,2.94,10.33,4.35c3.65,1.21,6.48,3.65,9.67,5.74c6.28,4.1,13.78,7.16,19.86,11.59c4.03,2.93,5.28,5.65,10.18,6.77
				c4.38,1,7.13-0.26,11.19-1.56c4.28-1.37,6.3-2.5,10.3-4.93c3.04-1.85,7.11-4.98,10.6-5.24c5.92-0.44,8.47,3.33,8.14,8.67
				c-0.32,5.29-2.8,6.75-6.62,10.2c-6.41,5.8-13.41,15.65-16.18,24.08c-0.96,2.92-0.31,10-4.2,10.1
				c-5.18,0.12-4.18-10.22-8.23-11.13c-3.34-0.75-10.5,15.66-11.18,2.5c-1.9,1.08-3.17,3.47-4.61,5.51
				c-2.34-1.54-1.95-4.35-3.47-6.58c-1.94-2.85-2.42-2.61-5.71-3.46c-4.67-1.2-9.64-2.5-14.57-2.09c-0.22,4.31,0.79,8.79-3.64,11.29
				c-4.9,2.78-6.19-3.37-9.32-1.83c-2.05,1.01-1.3,6.83-5.45,8.69c-4.43,1.99-9.3,0.44-13.74,1.66c-4.55,1.24-4.47,3.83-9.78,2.67
				c-7.33-1.59-9.91-5.08-14.52-8.92c-5.57-4.64-16.47-7.7-23.56-7.65c-6.25,0.05-9.05,6.03-15.27,5.22
				c-7.24-0.94-11.83-8.45-18.05-10.86c-4.88-1.9-12.25,0.86-16.59,3.21c-7.81,4.25-14.19,4.38-22.78,3.06
				c-2.02-0.31-4.24-0.06-6.23-0.51c-3.21-0.73-3.1-1.31-6-2.98c-2.87-1.65-7.17-3.23-10.27-3.67c-11.08-1.57-12.09,4.22-9.24,13.18
				c-4.91,0.73-10.66-3.76-15.22-1.83c-1.84,0.78-2.53,3.58-4.05,4c-3.14,0.87-3.63-1.89-5.73-2.47c-1.34-0.37-5.28-0.65-6.52-0.1
				c-3.48,1.54-1,1.51-2.66,4.59c-2.23,4.14-5.66,5.89-10.58,5.61c-5.41-0.31-7.78-5.21-12.75-6c-4.53-0.72-6.56,3.14-4.07,7.53
				c1.74,3.07,10.32,7.62,1.55,8.16c-4.14,0.26-9.46-4.94-13.76-2.59c-3.15,1.73-2.5,7.04-5.58,9.73c-3.32,2.9-7.28,1.89-10.73,3.55
				c-3.96,1.89-4.65,5.72-10.16,4.23c-4.27-1.15-8.85-5.47-12.84-7.64c-17.46-9.5-33.35-26.62-40.76-45.16
				c-4.11-10.3-11.44-18.54-15.13-28.9c-1.78-5-3.45-9.62-3.96-14.82c-0.21-2.11,0.34-4.59-0.09-6.66c-0.45-2.2-2.23-2.82-2.06-5.43
				c0.47,4.38,4,7.27,6.74,10.43c4.86,5.61,2.64,7.11,3.51,13.31c1.79,0.48,3.35,0.01,4.53-1.4c4.31,2.15,5.96,8.71,8.53,12.53
				c1.21-5.48-5.53-11.76-0.87-15.64c-4.08-3.93-5.57-6.4-3.61-12.26c1.43-4.27,3.59-8.9,8.13-10.06
				c4.92-1.26,13.34,2.33,15.68,7.01c2.76,5.52-2.55,8.18-6.08,10.7c4.67,3.8,5.39,5.59,3.26,11.36c-0.5,1.35-2.16,3.22-2.05,4.59
				c0.34,4.05,0.67,1.41,3.34,2.83c3.56,1.9,5.34,1.59,4.72,7.77c-0.31,3.05-3.24,9.72,2.01,9.69c8.7-0.06-3.12-17.83-3.56-21.42
				c-1.18-9.52-4.26-15.82,3.46-23.09c5.19-4.89,10.76-5.28,17.39-2.9c2.67,0.96,7.54,3.33,9.57,5.2c3.98,3.67,2.68,6.2,1.73,10.52
				c7.35,2.04,3.53-6.87,5.88-9.25c1.31-1.33,5.29-0.32,6.38,0.53c2.49,1.94,0.55,3.91,1.99,5.76c2.7,3.47,9.41,2.78,12.52,6.22
				c2.47,2.73,2.54,8.03,3.26,11.53c3.63,0.32,2.09-6.41,5.51-8.47c3.84-2.31,9.22,1.87,12.76-0.5c6.04-4.03-3.46-15.01-7.52-17.62
				c-6.95-4.46-15.65-3.73-23.04-7.11c-3.65-1.67-5.88-4.29-9.15-6.52c-3.65-2.48-7.83-3.56-11.34-6.52
				c-2.84-2.39-4.73-6.58-8.06-8.68c-3.65-2.3-8.07-2.15-11.68-4.7c-5.66-3.98-12.81-14.01-14.79-20.37
				c-1.79-5.74-1.08-20.26,2.46-23.99c2.73-2.88,6.44-3.68,8.89-7.13c2.4-3.36,3-8.02,6.62-10.6c4.82-3.43,3.6-0.19,6.89,3.05
				c3.13,3.08,5.43,2.67,9.81,1.42c3.65-1.04,8.24-2.79,11.16-5.24c3.18-2.67,5.02-5.76,9.16-7.52c7.25-3.08,16.08-4.78,20.89-12.21
				c5.54-8.55-2.29-13.17-6.51-19.49c-2.15-3.23-1.43-5.99-5.69-7.43c-3.62-1.23-8.31,0.21-11.34,1.3
				c-3.53,1.27-5.94,3.05-10.07,2.66c-5.5-0.52-3.09-3.8-7.35-5.24c0.78-0.44,1.4-0.33,2.26-0.37"/>
			<path class="st3" d="M7.05,302.68c1.81,2.28,4.08,4.09,5.74,6.49c1.87,2.7,1.29,5.75,5.46,5.77c6,0.03,5.52-8.21,6.19-12.17
				c0.55-0.19,0.79-0.33,1.26-0.62c-7.59,0.01-11.62-5.56-14.24-12.04c6.45-6.04,7.05-1.19,15.24,0.02
				c8.81,1.31,12.01-8.32,19.98-7.26c0.8,4.96-4.31,16.07-9.37,17.67c-4.01,1.26-5.44-2.15-9.16-2.97
				c-2.48-0.55-7.76,2.27-8.68-2.76c-0.91-5.01,10.23-11.27,12.08-15.92c3.86-9.74-6.75-16.09-7.7-25.16
				c-0.65-6.19-1.97-10.28-3.94-16.22c-1.13-3.39-0.56-12.76-5.73-12.87c-7.57-0.17-2.45,13.39-2.14,16.49
				c0.17,1.67,0.75,4.86-0.89,5.99c-2.49,1.72-3.6-1.66-5.64-1.08c-2.04,0.58-5.32,5.32-5.47,7.29c-0.37,4.75,2.09,2.37,3.98,4.99
				c2.45,3.4-0.78,10.61-0.55,15.3c0.12,2.44-0.36,6.42-0.01,8.67c0.6,3.89,2.74,3.61,4.73,6.52c1.69,2.46,3.97,11.86-0.12,13.37"/>
			<path class="st3" d="M75.27,427.62c3.14-1.43,6.79-3.59,10.17-4.97c4.24-1.74,7.79-0.32,12.23-0.1
				c11.3,0.56,22.92-4.69,33.15-9.1c5.93-2.56,23.45-9.6,25.43-0.1c0.58,2.79-1.84,10.69-3.59,12.77c-1.25,1.48-3,0.31-4.2,1.89
				c-1.68,2.22-1.16,3.52-1.39,6.25c-0.73,8.77-3.4,19.11-10.21,24.85c-5.91,4.98-15.88,6.51-22.4,1.17
				c-3.75-3.07-6.55-8.58-11.18-10.59c-4.3-1.87-7.12-1.16-11.19-4.09c-4.86-3.5-6.63-5.73-9.05-10.83
				c-1.58-3.34-3.16-6.66-6.25-8.67"/>
			<path class="st3" d="M186.77,402.63c-6.49-0.02-17.34-5.64-21.78,1.63c-1.7,2.79-3.16,8.88-4.2,12.15
				c-1.82,5.71,1.34,6.3,4.48,9.8c5.09,5.69-0.74,15.38-1.44,22.82c-0.57,6.09,2.47,4.26,5.12,8.7c2.07,3.47,0.31,8.11,1.66,11.69
				c1.45,3.86,4.75,11.2,8.53,6.6c4.8,3.56,5.72,7.03,11.78,8.18c6.12,1.16,12.24,0.21,18.33,1.02c6.22,0.83,8.74,2.98,13.53-1.12
				c3.67-3.13,5.81-7.19,8.67-10.98c5.16-6.84,14.62-11.11,17.96-0.52c1.81,5.75-0.83,8.27,6.6,7.94c4.3-0.19,7.78-2.31,11.79-2.33
				c5.93-0.03,9.13,3.97,13.29-0.61c1.25-1.38,1.41-4.01,2.55-5.61c1.56-2.19,3.9-2.63,5.5-4.46c3.41-3.91,0.1-7.43,1.97-11.86
				c1.56-3.7,6.63-8.42,9.2-11.74c2.59-3.35,6.42-5.44,6.12-10.2c-0.23-3.61-3.57-8.44-5.73-11.33c-2.95-3.96-6.49-7.25-8.03-12.1
				c-1.38-4.35-1.35-9.64-4.71-13.26c-3.21-3.46-6.44-2.16-10.58-3.96c-3.51-1.53-6.05-6.18-10.68-4.65
				c-5.59,1.84-4.11,6.32-11.2,6.04c-5.26-0.2-7.84-1.99-12.75-3.57c-4.09-1.32-8.68-1.02-13.24-1.02c-4.75,0-8.18-0.92-12.59-1.66
				c-6.13-1.02-5.89,2.25-10.2,5.73c-3.03,2.45-6.43,2.8-10.28,3.57c-4.42,0.88-8.81,1.51-9.15,6.98c-0.26-0.44-0.34-0.91-0.52-1.36
				"/>
			<path class="st3" d="M317.11,411.81c-1.42-0.28-2.88-0.07-4.01,0.63c3.5,4.41,1.12,6.71,1.46,11.1
				c0.28,3.53,3.45,9.88,6.21,12.11c3.4,2.75,8.62,1.7,12.26,4.07c3.72,2.41,4.7,9.02,8.66,4.22c3.98-4.83-1.9-19.68-6.73-22.58
				c-1.86-1.12-4.01-0.11-6.02-1.52c-2.1-1.48-1.91-4.19-3.66-5.62c-3.29-2.68-7.94-1.32-8.16,2.69"/>
		</g>
		<g>
			<path class="st4" d="M42.69,241.48c2.78-1.78,6.29-1.43,8.79-3.44c2.6-2.08,3.4-6.25,5.46-8.81c3.15-3.92,10.25-10.4,15.78-8.66
				c5.71,1.8,4.43,11.78,6,16.94c1.26,4.16,1.7,7.03,5.71,8.55c3.42,1.3,5.89-0.36,8.63,3.01c1.54-1.04,2.83-3.07,4.61-3.96
				c2.66,3.42,6.19,7.05,6.19,11.59c0.75,0.16,1.64,0.17,2.39,0c0.19-3.66-0.26-6.98-0.46-10.48c2.99,7.15,0.57,11.81,9.19,13.21
				c2.9,0.47,4.63,1.87,7.27-0.47c2-1.78,0.61-4.91,3.86-5.16c-0.25,2.81,0.6,5.27,0.67,8.02c3.62-1.6,15-9.69,16.2-4.01
				c0.62,2.91-2.13,6.3-2.54,9.18c-0.48,3.4,0.78,7.47-0.9,10.16c0.71-7.7-4.79-2.92-6.86,0.55c-2.64,4.43-3.09,8.57-2.85,13.7
				c3.33-0.43,3.92-6.06,6.65-7.98c3.58-2.52,4.85-1.16,7.65-5.72c1.06-1.72,2.76-8.76,3.96-8.71c2.17,0.1,2.18,8.05,2.13,9.67
				c6.23-3.57,9.13-12.73,18.15-11.09c-0.85,7.08,0.34,16.91-1.82,23.49c-0.98,2.98-4.16,8.53,3.03,7.03
				c3.59-0.75,4.42-5.19,6.13-8.12c1.85,1.58,5.02,3.88,5.47,5.63c0-1.75,0.55-4.55,0.01-6.19c-0.79-2.42-3.57-3.83-3.97-6.63
				c-0.76-5.39,4.62-9.14,7.04-3.09c0.69,1.73-0.86,5.38,1.07,6.58c2.53,1.58,4.12-1.46,6-1.86c2.43-0.51,6.05-0.44,8.29,0.55
				c3.26,1.44,2.12,2.2,4.45,4.57c3.72,3.81,6.65,2.99,11.23,3.94c6.11,1.27,7.43,7.43,10.19,12.28c4.73,8.28,5.91,13.28-5.1,16.28
				c-6.05,1.65-11.51,2.05-17.83,2.05c-6.9,0-11.9,0.83-18.32,2.45c-8.68,2.19-16.48-3.89-25.46-2.56
				c-3.71,0.55-9.16,0.75-10.7,4.17c-2.26,5.01,2.38,8.58-5.08,6.15c-8.07-2.63-10.02-11.6-17.82-14.68
				c-6.44-2.55-13.32-7.26-18.95-11.19c-6.5-4.54-13.38-5.96-20.39-9.71c-3.55-1.9-6.74-3.28-9.04-6.25
				c-2.99-3.84-2.53-4.82-8.13-5.71c-10.01-1.6-14.43-10.08-19.23-18.24c-2.93-4.99-3.2-10.18-4.19-15.81
				c-0.98-5.62-3.61-9.23,0.51-14.28"/>
			<path class="st4" d="M255.5,226.18c3.46,8.51,3.25,19.98,1.92,29.07c-0.92,6.29-1.54,16.33-5.88,21.44
				c-5.41,6.37-15.65,6.65-23.15,8.12c-6.75,1.33-15.82,2.18-21.59-2.15c5.56-3.23,11.99-3.4,17.64-7.15
				c5.04-3.34,5.27-6.43,7.76-11.6c2.27-4.71,3.5-7.01,1.78-12.23c-1.84-5.61-6.81-12.2-5.93-18.32c5.51,2.15,8.17,8.17,13.19,11.32
				c4.47,2.81,5.03,3.11,7.64-1.18c1.97-3.24,4.75-18.11,8.15-13.23"/>
			<path class="st4" d="M35.56,158.87c0.75,2.15,1.13,4.68,1.11,7.07c3.78-0.97,6.89-3.99,11.04-4.48c0.28,0.21,0.03,1.07,0.15,1.41
				c0.47,0.01,1.46-0.09,1.88,0.15c-0.19,2.01-1.74,3.64-2.4,5.44c1.52-0.4,3.15-0.66,4.42-1.9c-1.06,3.87-6.51,3.74-8.06,7.09
				c-1.52,3.27,1.05,8.19,0.4,11.69c-1.67-2.82-2.15-6.4-3.45-9.14c-2.92-6.17-1.41-1.05-5.59-0.61
				c-5.25,0.55-2.75-14.81,1.01-16.73"/>
			<path class="st4" d="M101.24,119.6c1.94,4.74,0,11.49-0.43,16.24c4.19,0.19,3.81-1.51,6.54,1.58c0.68,0.77,1.37,2.19,2.06,3.06
				c-0.12-0.15,2.97,3.4,2.55,2.55c2.26,4.56-1.7,13.08-5.13,16.93c-1.36-2.19-1.76-5.41-4.57-6.18c-3.5-0.95-4.11,2.06-6.6,4.13
				c-3.8-3.8-4.47,2.02-6.5,4.13c-4.63,4.82-5.34-0.81-7.8-0.15c-1.42,0.38-4.18,6.32-5.56,7.8c-2.76,2.95-5.42,6.21-8.08,8.9
				c-0.86-7.02,6.03-11.77,6.99-17.59c-4.23-0.12-4.54-4.11-2.99-6.21c1.32-1.79,6.28-3.61,8.14-5.22c5.81-5,2.35-14.45,8.13-19.84
				c3.92,2.68,2.93,6.95,3.14,11.21c3.78-1.07,7.42-4.46,8.46-8.21c0.86-3.1-2-11.55,2.58-11.54c0.12,0.47-0.06,1.01,0.08,1.45"/>
			<path class="st4" d="M94.62,96.14c0.67,3.71,0.89,6.62,4.98,3.64c0.64,3.27,2.47,1.08,3.69,2.47c1.28,1.46,1.52,2.35,2.01,4.6
				c0.67,3.08,0.52,7.71,3.17,9.57c5.95,4.19,17.34,1.15,24.27,2.74c0.08,1.93,0.04,3.9,0.1,5.85c-3.78-1.93-9.12-1.75-13.39-3.5
				c-4.89-2.01-10.88-3.42-15.19-6.01c-3.65-2.19-4.72-6.48-7.09-9.29c-1.99-2.36-3.13,0.07-3.57-3.96
				c-0.19-1.75,1.05-3.47,1.53-5.1"/>
			<path class="st4" d="M124.66,77.78c-1.2,4.36-4.26,8.36-6.59,12.16c3.48,0.36,6.64-2.53,9.04,0.6c1.92,2.51-0.44,5.29-0.9,7.66
				c-1.02,5.28,0.92,9.95,0.57,15.23c4.77-1.31,7.09-11.18,7.13-15.7c3.54,0.18,5.66,6.3,8.45,8.58c2.79,2.27,5.03,2.61,8.17,4.05
				c1.85-7.52,0.38-8.77-6.54-11.18c-5.81-2.02-4.03-2.11-3.65-7.36c0.4-5.55-10.58-19.24-16.18-12.52"/>
			<path class="st4" d="M309.47,469.95c4.97-4.68,3.72-7.55,11.2-9.7c5.09-1.46,11.37-4.13,16.72-3.48
				c1.66,5.61-10.48,4.67-13.78,6.95c-2.18,1.5-3.66,4.9-5.61,6.11c-2.44,1.51-6.01-0.52-8.02,1.66"/>
			<path class="st4" d="M11.12,311.86c1.66,3.72,4.56,7.22,6.11,10.68c1.78,3.98,1.51,7.19,1.09,11.68
				c4.23-0.63,4.86-4.38,8.96-1.45c1.53,1.1,4.26,5.58,5.1,7.1c0.51-3.7-1.92-6.96-1.1-11.09c-2.93-3.8-3.9-12.24-0.31-16.41
				c3.36-3.9,12.11-5.98,15.42-1.02c2.72,4.08,0.1,12.2,1,16.71c1.01,5.1,1.15,9.01,0.46,14.32c10.76-1.44,4.6,15.94,9.95,18.47
				c7.73,3.65-0.43-21.78-1.26-24.44c-1.3-4.14-2.48-7.75-3.14-11.81c-0.4-2.48-3.12-10.62-2.1-12.76c2.72-5.65,6.21,2.28,9.22,2.08
				c1.73-0.12,3.12-2.74,4.67-3.47c2.94-1.38,4.23-0.89,7.38-0.61c5.4,0.48,13.21,2.25,15.82,7.74c1.84,3.86-3.95,12.75,2.16,13.08
				c2.38-4.78-0.21-12.01,7.01-13.64c1.23,2.62,3.39,7.76,6.06,9.26c3.98,2.23,9.03,0.26,13.49,3.54c9.49,6.99-2.81,13.81-6.35,21.2
				c-2.29,4.78,0.41,6.16,4.32,2.28c3.56-3.53,2.37-6.1,6.98-6.64c3.06-0.36,2.9,1.38,6.02-0.64c1.68-1.09,2.88-3.73,4.72-5
				c4.03-2.77,6.24-1.98,8.13,2.44c3.47,8.09-1.38,21.08,3.04,28.13c2.79-4.5-1.16-14.63,3.95-17.87c5.01,7.52,1.5,14.32,12.35,7.11
				c2.1-1.39,7.66-4.83,10.72-3.12c2.63,1.47,3.98,10.28,4.12,13.22c8.78-0.95,6.11-15.62,12.07-17.6
				c-0.11,1.78,0.05,3.68,0.67,5.37c7.06,1.26,2.64-11.6,7.55-11.55c6.06,0.06,3.87,9.21,0.16,11.01c4.77,0.32,13,0.42,11.63,7.66
				c3.38,1.94,6.94,1.11,6.43,6.61c0.1-1.1-2.81,5-1.9,4.21c-1.55,1.34-3.36,1.87-5.55,1.43c-1.09-5.46-18.93-9.47-18.92-4.51
				c0,3.49,8.09,4.56,1.01,7.17c-3.84,1.41-7.46-0.41-11.2,2.13c-4.5,3.06-4.24,4.57-10.21,3.08c-3.84-0.96-7.36-2.85-11.57-1.04
				c-7.52,3.23-8.18,14.45-18.44,11.01c-4.29-1.44-6.98-4.46-11.71-5c-5.63-0.64-8.13,1.79-4.2,6.77c2.28,2.89,7.31,4.6,1.16,7.01
				c-3.87,1.52-8.38-1.34-12.1,1.11c-3.2,2.1-4.8,5.35-8.76,7.17c-3.91,1.79-6.88,1.42-10.58,2.55c-7.53,2.3-15.11,5.06-23.16,2.55
				c-10.96-3.42-15.31-13.48-21.78-21.66c-7.15-9.05-13.45-19.93-18.22-30.47c-2.71-5.99-6.14-10.97-8.37-17.24
				c-1.46-4.11-2.43-7.9-3.56-12.35c-1.97-7.74-7.23-17.27-5.49-25.47c0.16-0.75-0.01-1.67-0.02-2.44c1.49,2.27,0.44,5.45,1.65,7.41
				c1.48,2.4,4.02,1.33,4.48,4.18"/>
			<path class="st4" d="M235.14,298.6c-0.76-0.68-1.67-1.17-2.54-1.58c-0.39,0.32-1.07,0.7-1.4,0.99c-0.16-0.89-1.12-1.85-1.23-2.89
				c-0.65-0.05-1.21-0.04-1.86,0c-2.41,4.29,2.92,6.42,4.89,9.61c2.12,3.44,2.01,6.72,6.36,9.04c6.79,3.61,17.49,7.43,25.32,8.69
				c8.54,1.37,18.4,0.89,26.42-2.41c5.3-2.19,6.91-5,8.73-10.2c1.22-3.47,4.01-8.45,0.09-10.36c-5.66-2.75-7.98,7.98-15.3,6.68
				c-1.63-4.95-3.42-4.84-8.34-5.01c-7.35-0.25-4.56-2.22-8.03-6.13c0.5,0.57-4.5-2.25-4.08-2.03c-1.99-1.05,0.07-2.96-3.42-1.91
				c-4.64,1.38-2.43,6.24-8.71,5.41c-1.14-8.51-17.27-0.85-8.82,8.64c-4.08,3.89-6.48-2.52-6.11-5.94c-1.78-0.05-4.93-0.96-5.52-1.1
				"/>
			<path class="st4" d="M239.72,334.3c-4.64,1.04-13.68,0.89-13.67,7.57c4.81,0.41,9.69-2.71,15.02-2.38
				c-1.32,1.31-2.82,2.84-3.7,4.54c1.69-0.45,3.17-0.75,4.82-0.98c-0.17,0.74-0.1,1.61-0.37,2.41c0.57-0.26,1.35-0.31,2.01-0.76
				c-0.03,0.57-0.18,1.22,0.03,1.77c2.39,0.05,4.74-0.56,6.99-0.88c-1.04,8.07,25.03-4.71,28.49-5.63c0.13,0.48,0.08,0.92,0.18,1.41
				c2.25,0.31,4.76,0.04,6.9-0.37c-1.31,1.22-1.19,2.64-1.8,3.94c6.79,0.82,26.81-8.84,29.27-16.28c-1.79-0.11-3.48,0.43-4.82,1.51
				c0.71-4.37,5.58-7.64,8.11-11.15c-0.92-0.29-1.4-1.24-3.04-1.11c1.79-9.25-9.83,1.01-11.39,2.12c-2.01,1.42-4.53,2.06-7.04,2.59
				c-2.84,0.6-4.1,0.85-7.23,2.4c-9.69,4.8-21.19,10.72-32.38,10.24c-0.12-0.48-0.02-0.9-0.15-1.38c-3.69,0.4-9.85-0.98-13.09,0.39
				c-0.45-4.2-5.67-0.93-7.71-0.46"/>
			<path class="st4" d="M229.54,378.67c-0.25,0.54,0.61,1.32-0.97,0.95c1.24-4.09-2.91-22.72,6.48-20.24
				c0.06,0.89,0.64,1.43,0.67,2.38c2.03,0.11,4.12-0.91,5.94-1.38c1.16,2.6,4.83,1.41,7.11,0.51c1.95,2.5,6.26,1.38,9.19,1.53
				c-0.61,3.1,0.65,2.71,2.62,3.49c1.4,0.55,5.93,1.39,7.13,1.57c4.7,0.71,8.22-0.48,11.7-3.21c3.35-2.63,5.81-5.22,10.07-7.03
				c5.58-2.37,4.42,0.2,9.8,1.53c4.2,1.04,5.64-0.89,9.8,2.42c4.53,3.61,6.21,6.11,11.98,7.38c4.02,0.88,6.61,2.22,8.89,6.01
				c1.66,2.75,5.06,8.35,4.99,11.73c-0.08,4.2-4.82,8.19-8.68,9.19c-5.34,1.38-7.6-1.69-10.68-5c-6.89-7.42-13.84-11.97-24.45-10.95
				c-4.22,0.41-4.76,3.13-9.67,3.7c-3.21,0.37-9.35,1.29-11.31,0.63c-3.52-1.18-5.82-5.4-9.56-6.64c-3.5-1.16-8.98-1.69-12.74-1.15
				c-6.61,0.96-10.99,0.38-17.73-0.06c-0.56-1.51,0.28-0.97,0.94-1.45"/>
			<path class="st4" d="M321.18,324.61c-1.55,1.4-5.01,3.44-6.12,5.63c-2.17,4.28-0.08,0.8,2.05,3.56c2.1,2.73,1.77,0.48,0.1,4.6
				c-0.71,1.75-2.15,3.11-2.59,4.97c1.15-0.24,2.78,0.41,3.95,0.18c-1.1,5.17,12.14,3.32,14.37,3.03
				c7.29-0.92,11.99-4.45,18.55-6.64c4.5-1.5,28.27,7.77,26.64,14.15c-5.77,3.64-7.98-1.74-12.64-2.52
				c-5.23-0.88-12.44,7.15-12.29-2.95c-2.13,0.89-2.52,0.11-4.05-0.56c7.99-7.55-7.13-8.21-7.51-6.2c0.27-1.41-0.19-3.09,0.37-4.44
				c-2.02-0.17-4.17-0.22-5.97,0.38c0.51-4,6.09-2.67,8.48-1.56c0.52-0.68,0.99-2.15,1.04-2.88c-5.64-0.98-8.53-8.05-15.11-8.85
				c-0.46-1.41-0.99-1.29-1.53-1.9c-0.57,2.05-1,4.18,0.22,6c-3-3-0.67-7.41-4.8-9.6c-0.63,3.6,1.1,9.33,4.05,11.19
				c-1.17,1-2.84,1.35-4.57,0.93c0.2-2.67,0.42-5.79-3.13-5.02"/>
			<path class="st4" d="M348.16,361.33c-0.96-4.26-13.63,6.55-14.2,10.1c2.75,0.51,4.77-1.3,7.52-0.84
				c-0.62,1.18-0.92,3.26-1.39,4.44c3.36,0.4,1.76,4.62,1.01,6.61c5.86,0.65,3.93-8.67,11.6-7.48c0.38,5.9,22.75-6.32,26.45-5.61
				c0.13,0.48,0,0.9,0.15,1.38c1.78,0.2,3.52-0.13,4.92-0.88c0.08,0.84,0.62,1.56,0.7,2.41c2.39-0.45,5.18-1.18,5.08,2.04
				c3.35-0.36,8.77-1.93,11.97-2.92c-1.27,1.43-2.52,2.77-3.35,4.45c0.29,0.28,1.03,0.03,1.42,0.15c-0.06,0.57-0.08,1.86,0.15,2.4
				c4.05,0.6,7.27-3.21,10.51-4.97c-0.13,0.86,0.31,2.06,0.18,2.93c2.84-0.28,7.27-2.12,7.13-5.45c2.7,1.64,6.03-0.38,7.1-3.62
				c1.24-3.76-0.82-5.39,3.01-8.69c2.62-2.26,13.88-12.07,9.31-16.98c-2.16-2.32-8.74-0.28-10.2,1.17
				c-2.57,2.54-2.63,6.89-4.71,9.69c-3.44,4.61-10.14,9.01-14.66,12.7c-0.79-4.5-6.03,1-8.75,1.09c-2.5,0.09-8.15-1.81-7.71-5.05
				c-1.41,0.25-3.09-0.19-4.42,0.36c-0.25-0.51-0.44-0.88-0.72-1.37c-4.09,5.02-4.41,2.36-9.03,1.84
				c-4.58-0.52-6.08,4.01-10.63,3.62c0.05-1.65-2.02-5.34-4.13-5.09c-3.05,0.37-1.98,6.6-6.05,3.16c0.22,1.06,0.02,2.46,0.36,3.46
				c-2.07-1.02-6.55-3.75-7.56-4.52"/>
			<path class="st4" d="M161.14,192.36c1.69,4.8,0.12,11.71-3.42,15.18c0.05-0.98,0.03-1.64,0.38-2.49
				c-0.08,2.29-0.79,5.97-1.8,8.05c-0.76,1.57-2.71,2.41-2.24,4.36c2.32-0.3,3.99-4.4,5.31-6.33c0.17,2.55-0.56,5.23-0.22,7.7
				c1.51-0.51,1.63-2.31,3.29-2.91c-0.2,1.24,0.25,1.91,0.8,2.9c0.49-0.44,1.52-0.73,1.91-1.3c0.35,5.4-0.71,11.43,2.37,16.24
				c1,1.57,2.68,2.36,3.48,4.49c0.67,1.78,0.36,3.76,1.35,5.15c0.95-1,1.88-2.34,3.04-3.07c1.76,3.6,3.16,2.4,6.13,3.36
				c2.5,0.81,3.32,3.17,6.43,2.98c1.25-0.08,2.25-1.21,3.43-1.3c2.01-0.15,2.79,1.18,4.35,1.38c2.74,0.35,4.38-0.31,4.38-3.37
				c-5.19,4.31-14.04-3.11-19.31-6.23c-4.51-2.67-7.91-9.2-9.23-14.2c-0.33-1.26-0.19-2.88-0.59-4.08
				c-0.41-1.23-1.58-1.88-1.98-3.05c-1.05-3.14,0.13-6.49-1.41-9.52c-0.81-1.61-1.6-1.48-2.05-3.4c-0.33-1.41,0.26-3.01-0.08-4.42
				c-0.17-0.7-2.72-7.03-3.75-6.76c-0.06,0-0.12-0.01-0.18-0.01c-0.15,2.24,0.52,5.06-1.09,6.76"/>
			<path class="st4" d="M176.08,186.24c3.99,4.42,3.17,11.58,4.06,16.93c0.94,5.58,3.09,5.97,8.1,4.88
				c0.02,1.08-0.08,4.09,1.14,4.64c2.14,0.96,3.21-2.56,5.02-2.66c2.52-0.14,1.78,2.01,3.47,3c1.43,0.84,3.68,0.38,5.3,0.46
				c0.99,3.07,0.51,5.5-1.89,7.09c-2.5,1.65-4.53,0.84-4.44,4.71c2.21,0.34,6.15-0.38,8.09-1.38c2.29-1.19,3.59-3.34,6.39-4.3
				c0.23,2.14-5.16,6.75,0.74,6.07c2.85-0.33,7.31-5.44,8.41-8.17c1.64-4.07-1.05-4.52-2.99-7.55c-2.06-3.21-0.4-4.86-0.72-8.37
				c-3.07,0.09-2.47,6.25-6.47,5.73c-3.86-0.5-1.08-4.24-2.96-6.18c-1.4,1.08-6.01,13.5-6.47,4.06c-0.08-1.57,1.31-5.1-0.32-6.06
				c-1.62-0.95-3.95,1.46-5.03,2.01c-0.26-0.56-1.04-3.38-1.51-3.63c-2.22-1.2-1.37,0.93-2.72,1.99c-4.16,3.25-0.79-1.48-1.61-4.44
				c-0.85-3.05-4.17-1.99-6.35-3.49c-1.22-0.84-1.06-2.84-2.81-2.64c-1.46,0.17-1.91,2.97-2.09,4.32c-0.25-0.15-0.46-0.34-0.63-0.58
				"/>
			<path class="st4" d="M162.16,168.22c1.32,2.6-1.91,3.71-1.31,6.41c1.23-0.14,2.49-1.82,3.64-1.77c2.14,0.09,0.51,0.28,1.39,1.73
				c0.83,1.36,0.54,4.19,2.38,4.86c2.04,0.75,8.27-3.3,9.53-4.87c0.9-1.12,2.31-2.71,0.92-4.24c-1.72-1.91-3.27,0.43-5,0.18
				c-3.07-0.45-4.77-5.22-8.43-5.31c-0.07,1.33-0.82,1.72-1.42,2.33"/>
			<path class="st4" d="M298.27,445.98c4.1-12.23-1.05-14.09-10.95-19.63c-10.66-5.98-17.32-7.6-18.74,7.24
				c-9.39,1.49-24.43-1.52-33.52-3.82c-0.07,2.46-1.59,5.96-1.1,8.92c-6.98,0.21-11.63-6.13-19.02-4.77
				c-1.75,14.29-11.89,1.02-17.49-2.24c-5.8-3.38-18.02-7.65-25.3-7.01c-0.24,3.96-0.06,8.04-0.31,11.98
				c-16.19-2.12-3.7,37.25,1.18,42.74c12.17,13.71,32.67,13.1,46.56,4.08c6.66-4.33,10.46-12.57,16.62-14.99
				c11.13-4.37,9.7,3.52,14.97,8.35c11.85,10.86,28.91-1,36.65-11.52c3.31-4.5,5.1-9.51,8.63-13.97c4.41-5.57,9.49-6.45,7.77-15.4
				c-3.31,0.7-2.89-1.75-3.92-2.19"/>
		</g>
	</g>
	<g>
		<path class="st3" d="M181.87,30.45l-10.56,2.16l-1.87-9.19l31.2-6.38l1.88,9.19l-10.56,2.16l11.25,55.16l-10.09,2.07L181.87,30.45
			z"/>
		<path class="st3" d="M218.4,15.76l13.95-0.41l12.6,65.34l-10.3,0.3l-2.25-12.98l0,0.19l-11.71,0.34l-1.5,12.9l-9.55,0.28
			L218.4,15.76z M225.91,0.33L237.15,0l-9.71,11.08l-7.77,0.23L225.91,0.33z M230.91,59.32l-5.54-32.32l-0.19,0.01l-3.54,32.58
			L230.91,59.32z"/>
		<path class="st3" d="M250.1,78.31c-2.11-3.24-2.73-7.49-1.85-12.73l8.29-49.42l10.16,1.71l-8.42,50.15
			c-0.37,2.22-0.19,3.9,0.53,5.04c0.73,1.14,1.92,1.85,3.58,2.13c1.66,0.28,3.02,0,4.08-0.84c1.06-0.83,1.77-2.36,2.14-4.59
			l8.42-50.15l9.79,1.65l-8.29,49.41c-0.88,5.25-2.85,9.05-5.91,11.42c-3.06,2.37-7.05,3.14-11.98,2.31
			C255.74,83.59,252.22,81.56,250.1,78.31z"/>
		<path class="st3" d="M302.47,25.49l12.05,4.69l-4.86,40.29l0.18,0.07l14.2-36.65l8.56,3.33l-23.73,61.23L299,94.6l5.79-49.18
			l-0.17-0.07l-17.32,44.7l-8.56-3.33L302.47,25.49z"/>
		<path class="st3" d="M332.15,109c-0.26-3.86,1.28-7.86,4.62-12l31.42-38.99l8.01,6.48l-31.89,39.57c-1.41,1.75-2.08,3.3-2,4.65
			c0.08,1.35,0.77,2.55,2.08,3.62c1.31,1.06,2.63,1.49,3.97,1.28c1.33-0.21,2.7-1.19,4.12-2.94l31.89-39.57l7.73,6.25l-31.42,38.99
			c-3.34,4.14-6.92,6.49-10.74,7.05c-3.83,0.56-7.68-0.73-11.57-3.87C334.48,116.37,332.4,112.87,332.15,109z"/>
		<path class="st3" d="M357.43,130.72c0.52-3.79,2.81-7.41,6.87-10.83l2.86-2.42l6.28,7.46l-3.44,2.9c-3.25,2.74-3.72,5.48-1.43,8.2
			c1.13,1.34,2.37,2.02,3.75,2.05c1.37,0.03,2.94-0.7,4.71-2.2c2.1-1.77,3.55-3.81,4.34-6.12c0.8-2.31,1.23-5.7,1.3-10.18
			c0.13-5.67,0.8-10.13,2.03-13.38c1.23-3.25,3.3-6.1,6.21-8.56c3.97-3.35,7.88-4.93,11.74-4.76c3.86,0.18,7.4,2.17,10.62,6
			c3.18,3.78,4.5,7.55,3.96,11.33c-0.54,3.77-2.84,7.37-6.9,10.8l-2.08,1.76l-6.28-7.46l2.58-2.18c1.72-1.45,2.69-2.84,2.92-4.18
			c0.22-1.33-0.21-2.65-1.29-3.94c-2.22-2.63-4.92-2.59-8.12,0.11c-1.81,1.53-3.1,3.45-3.85,5.77c-0.75,2.31-1.16,5.71-1.23,10.18
			c-0.09,5.72-0.78,10.19-2.07,13.41s-3.51,6.16-6.67,8.82c-4.1,3.47-8.11,5.11-12.02,4.93c-3.91-0.18-7.49-2.21-10.75-6.08
			C358.25,138.32,356.9,134.51,357.43,130.72z"/>
		<path class="st3" d="M430.85,123.4l4.99,9.03l-23.36,12.94l5.35,9.69l23.36-12.94l4.99,9.03l-57.38,31.79l-4.99-9.03l25.82-14.3
			l-5.35-9.69l-25.82,14.3l-4.99-9.03L430.85,123.4z"/>
		<path class="st3" d="M394.27,188.46c1.93-3.36,5.43-5.83,10.5-7.42l47.74-14.96l3.07,9.85l-48.46,15.18
			c-2.14,0.67-3.56,1.59-4.24,2.76c-0.68,1.16-0.77,2.55-0.27,4.17c0.51,1.61,1.37,2.7,2.59,3.27c1.22,0.57,2.91,0.51,5.06-0.16
			l48.46-15.18l2.96,9.49l-47.74,14.96c-5.07,1.59-9.35,1.55-12.84-0.11s-5.99-4.88-7.48-9.65
			C392.13,195.89,392.34,191.82,394.27,188.46z"/>
		<path class="st3" d="M465.73,219.16l1.47,13.9l-64.09,17.56l-1.09-10.26l12.75-3.24l-0.19,0.02l-1.23-11.66l-12.96-0.51
			l-1.01-9.52L465.73,219.16z M423.32,234.98l31.75-7.99l-0.02-0.19l-32.71-1.06L423.32,234.98z"/>
		<path class="st3" d="M467.75,258.2l-0.52,10.31l-65.49-3.32l0.52-10.31L467.75,258.2z"/>
		<path class="st3" d="M464.15,293.34l-2.88,13.68l-66.37-3.1l2.13-10.1l13.13,0.86l-0.18-0.04l2.42-11.48l-12.17-4.49l1.98-9.36
			L464.15,293.34z M418.93,295.29l32.66,2.21l0.04-0.18l-30.79-11.11L418.93,295.29z"/>
	</g>
</g>
</svg>
