<?xml version="1.0" encoding="utf-8"?>
<!-- Generator: Adobe Illustrator 24.2.1, SVG Export Plug-In . SVG Version: 6.00 Build 0)  -->
<svg version="1.1" id="Layer_1" xmlns="http://www.w3.org/2000/svg" xmlns:xlink="http://www.w3.org/1999/xlink" x="0px" y="0px"
	 viewBox="0 0 20 20" style="enable-background:new 0 0 20 20;" xml:space="preserve">
<style type="text/css">
	.st0{fill-rule:evenodd;clip-rule:evenodd;fill:#FAFAFA;}
</style>
<g>
	<g>
		<path class="st0" d="M10.14,2.5c-4.07,0-7.36,3.27-7.36,7.31c0,1.38,0.39,2.67,1.06,3.77L2.5,17.5l4.08-1.3
			c1.06,0.58,2.27,0.91,3.56,0.91c4.07,0,7.36-3.27,7.36-7.31C17.5,5.77,14.2,2.5,10.14,2.5z M10.14,15.89
			c-1.24,0-2.4-0.37-3.37-1.01l-2.36,0.75l0.77-2.26c-0.73-1-1.17-2.24-1.17-3.57c0-3.35,2.75-6.08,6.13-6.08
			c3.38,0,6.13,2.73,6.13,6.08C16.27,13.16,13.52,15.89,10.14,15.89z M13.59,11.47c-0.18-0.1-1.09-0.59-1.26-0.65
			c-0.17-0.07-0.29-0.1-0.43,0.08c-0.13,0.18-0.51,0.59-0.62,0.71c-0.11,0.12-0.22,0.13-0.41,0.03c-0.18-0.1-0.78-0.32-1.48-0.98
			c-0.54-0.52-0.89-1.14-1-1.33c-0.1-0.19,0-0.29,0.1-0.38c0.09-0.08,0.2-0.21,0.29-0.32c0.1-0.11,0.13-0.18,0.2-0.3
			c0.07-0.12,0.04-0.23,0-0.33C8.94,7.9,8.6,6.97,8.46,6.59c-0.14-0.38-0.3-0.32-0.41-0.33c-0.11,0-0.23-0.02-0.36-0.03
			c-0.13,0-0.33,0.03-0.51,0.21C7,6.63,6.49,7.06,6.46,7.98C6.42,8.89,7.06,9.81,7.15,9.93c0.09,0.13,1.22,2.12,3.1,2.94
			c1.88,0.82,1.89,0.57,2.24,0.55c0.35-0.02,1.13-0.41,1.3-0.84c0.17-0.43,0.19-0.8,0.14-0.88C13.9,11.62,13.77,11.57,13.59,11.47z"
			/>
	</g>
</g>
</svg>
